<?xml version="1.0" encoding="utf-8"?>
<!-- Generator: Adobe Illustrator 16.0.0, SVG Export Plug-In . SVG Version: 6.00 Build 0)  -->
<!DOCTYPE svg PUBLIC "-//W3C//DTD SVG 1.1//EN" "http://www.w3.org/Graphics/SVG/1.1/DTD/svg11.dtd">
<svg version="1.1" id="Camada_1" xmlns="http://www.w3.org/2000/svg" xmlns:xlink="http://www.w3.org/1999/xlink" x="0px" y="0px"
	 width="256px" height="306px" viewBox="0 0 256 306" enable-background="new 0 0 256 306" xml:space="preserve">
<rect y="0" fill="#168536" width="256" height="306"/>
<g>
	<path fill="#F4D809" d="M163.443,200.727l1.604,40.178l4.821-0.803l10.442-56.25l-0.803,49.021h4.819l8.036-69.104
		c3.215,24.908,1.607,60.271,1.607,60.271h4.018c7.232-59.466,0.804-105.27,0.804-105.27c11.251,23.304,11.251,77.945,11.251,77.945
		h3.215c2.41-52.23-4.822-84.376-4.822-84.376c9.646,18.482,12.857,56.25,12.857,56.25h4.82c-0.688-17.679-3.428-74.73-32.223-94.02
		c-28.793-19.285-65.127-16.07-65.127-16.07h-2.98c0,0-36.334-3.215-65.129,16.07c-28.793,19.287-31.536,76.341-32.222,94.02h4.821
		c0,0,3.215-37.768,12.857-56.25c0,0-7.232,32.146-4.821,84.376h3.214c0,0,0-54.644,11.251-77.945c0,0-6.429,45.804,0.804,105.27
		h4.018c0,0-1.607-35.356,1.607-60.271l8.036,69.104h4.821l-0.803-49.021l10.446,56.25l4.821,0.806l1.607-40.181H163.443
		L163.443,200.727z"/>
	<path fill="#ED823A" d="M183.82,113.896c0-10.686-7.91-15.649-12.762-17.807c-10.688-4.75-13.951-9.499-13.951-9.499
		c-5.045-5.936-9.494-11.276-19.586-11.571h-20.479c-10.09,0.295-14.543,5.638-19.587,11.571c0,0-3.265,4.749-13.95,9.499
		c-4.852,2.155-12.762,7.122-12.76,17.807c0,8.979,5.216,14.368,10.781,17.228l5.689,59.938c0,0-0.297,16.916,8.607,29.68
		c0,0,6.232,8.312,11.277,12.167c5.045,3.858,9.497,7.718,18.104,8.015h4.154c8.604-0.297,13.061-4.154,18.104-8.015
		c5.042-3.855,11.277-12.167,11.277-12.167c8.9-12.764,8.605-29.68,8.605-29.68l5.688-59.938
		C178.604,128.264,183.818,122.875,183.82,113.896z"/>
</g>
</svg>
