<?xml version="1.0" encoding="utf-8"?>
<!-- Generator: Adobe Illustrator 16.0.0, SVG Export Plug-In . SVG Version: 6.00 Build 0)  -->
<!DOCTYPE svg PUBLIC "-//W3C//DTD SVG 1.1//EN" "http://www.w3.org/Graphics/SVG/1.1/DTD/svg11.dtd">
<svg version="1.1" id="Camada_1" xmlns="http://www.w3.org/2000/svg" xmlns:xlink="http://www.w3.org/1999/xlink" x="0px" y="0px"
	 width="256px" height="306px" viewBox="0 0 256 306" enable-background="new 0 0 256 306" xml:space="preserve">
<rect y="0" fill="#168536" width="256" height="306"/>
<g>
	<g>
		<path fill="#ED823A" d="M183.214,129.058c-0.019-0.064-0.038-0.121-0.055-0.188c-0.103-0.379-0.207-0.785-0.31-1.213
			c-0.02-0.076-0.037-0.156-0.061-0.24c-0.104-0.438-0.208-0.898-0.309-1.383c-0.014-0.045-0.021-0.092-0.027-0.139
			c-0.104-0.492-0.206-1-0.307-1.527c-0.008-0.033-0.014-0.064-0.021-0.104c-0.104-0.535-0.206-1.094-0.306-1.658
			c-0.01-0.074-0.021-0.145-0.034-0.213c-0.099-0.568-0.194-1.146-0.291-1.732c-0.007-0.047-0.015-0.094-0.021-0.137
			c-0.201-1.248-0.396-2.521-0.572-3.783c-0.127-0.131-0.256-0.268-0.383-0.393c-0.854-7.594-2.955-16.699-3.894-20.537
			c-0.062-0.131-0.123-0.264-0.188-0.396c-0.067-0.148-0.139-0.299-0.215-0.451l0,0c-0.049-0.107-0.106-0.219-0.16-0.324
			c-0.235,1.646-0.812,5.908-0.812,8.49c0,3.248-1.024,3.762-2.054,3.59c-1.021-0.172-0.854-3.418-0.854-3.418
			c-0.166-6.842-9.06-12.312-9.06-12.312c-0.854,2.221,1.877,10.086,2.729,11.797c0.855,1.709,2.908,3.762,1.885,4.959
			c-1.025,1.197-1.711,0.854-4.273-2.564c-2.562-3.418-6.669-15.217-6.669-15.217s1.026,5.299,0.515,8.721
			c-0.515,3.42-2.732,7.863-4.445,8.035c-1.711,0.172-1.366-1.709-1.366-1.709s3.763-3.418,3.42-9.404
			c-0.341-5.982-7.009-9.744-7.009-9.744s1.021,3.25,1.537,6.668c0.509,3.418-1.369,8.719-3.418,8.719
			c-2.056,0-0.688-1.367-0.856-5.643c-0.172-4.273-4.96-10.26-4.96-10.26c-3.589,4.617,0.516,16.246,1.538,17.609
			c1.026,1.367,3.422,4.445,1.713,5.131c-1.713,0.684-4.444-1.195-5.813-7.523c-1.365-6.324-5.131-14.873-5.131-14.873
			c2.225,6.154,2.051,15.729,2.051,17.781c0,2.051-0.51,5.129-2.393,5.129c-1.882,0-1.709-2.053-1.709-2.053
			s0.512-2.225,0.168-12.311c-0.341-10.086-10.54-16.927-10.54-16.927c9.347,10.939,4.332,31.23,4.332,31.23
			s-1.369,2.055-3.193,1.371c-1.824-0.686-1.371-2.281-1.371-2.281c5.018-18.465-5.925-31.23-5.925-31.23s-3.987,0.227-4.331,9.802
			c-0.104,2.947-1.025,3.42-2.221,3.42c-1.198,0-1.539-2.227-1.539-2.227c-1.197-4.273,0-10.599,0-10.599
			c-5.133,5.982-0.857,15.045-0.342,15.9c0.511,0.854,2.393,3.248,1.193,5.301c-1.193,2.049-2.049,1.027-2.049,1.027
			c-2.737-2.226-5.988-10.26-5.988-10.26c-0.168,5.471,3.423,11.627,5.475,15.898c2.052,4.275,1.025,7.354-3.249,2.052
			c-4.275-5.3-6.839-16.241-6.839-16.241c-2.223,2.907,1.025,12.311,2.393,15.219c1.37,2.904,1.881,6.494-1.028,4.443
			c-2.903-2.053-4.956-11.627-4.956-11.627s-0.512,6.326,0.684,9.061c1.196,2.738,2.053,5.814,4.105,8.896
			c2.052,3.075,0.167,5.47-2.568,3.591c-1.211-0.834-2.422-2.51-3.399-4.111l-0.494,1.066c-0.361,3.076-0.762,5.867-1.184,7.932
			l-2.027-1.203c-0.119,0.635-0.235,1.246-0.355,1.834c-0.007,0.027-0.011,0.041-0.015,0.068c-0.115,0.566-0.236,1.117-0.354,1.635
			c-0.012,0.037-0.021,0.07-0.032,0.107c-0.113,0.506-0.236,0.984-0.353,1.43c-0.01,0.035-0.02,0.061-0.029,0.092
			c-0.123,0.445-0.243,0.861-0.373,1.234c-0.141,0.406-0.257,0.812-0.367,1.219c-0.085,0.32-0.154,0.643-0.224,0.961
			c-0.013,0.084-0.036,0.16-0.05,0.242c-0.08,0.387-0.141,0.783-0.194,1.176c0,0.002,0,0.01-0.003,0.012
			c-0.053,0.398-0.094,0.791-0.125,1.193l0,0c-0.373,4.992,1.021,9.854,2.1,14.719c1.418,6.408-0.849,27.975,11.066,41.088
			c11.398,12.543,20.998,20.793,37.453,21.238c16.451-0.445,26.057-8.695,37.453-21.238c11.92-13.113,9.645-34.68,11.064-41.088
			c1.42-6.414,3.406-12.82,1.139-19.521C183.436,129.814,183.32,129.443,183.214,129.058z"/>
	</g>
	<path fill="#F4D809" d="M241.684,211.279c-10.687-10.688-15.199-30.641-16.93-41.369c0.658,0.68,1.268,1.33,1.818,1.926
		c0.146,1.17,0.632,1.406,1.152,1.279c0.7,0.812,1.166,1.414,1.228,1.656c0.344,1.369,4.104,6.5,4.444,10.258
		c0.345,3.762,5.129,6.498,3.42-2.391c-0.703-3.654-3.832-9.162-7.278-14.383c0.28-4.896,0.666-14.014,0.438-23.922
		c-0.195-8.562-3.404-15.941-6.059-20.635c1.107,0.891,2.236,1.66,3.372,2.271c0.219,0.113,0.442,0.176,0.676,0.201
		c1.61,1.686,3.319,3.984,3.72,6.193c0.686,3.762,4.104,6.84,3.765-0.344c-0.345-7.182-12.312-14.703-12.312-14.703
		s-0.014,0.035-0.029,0.086c-2.039-2.162-4.027-4.742-5.916-7.529c-0.32-2.598-0.479-6.18-0.601-10.303
		c3.78,2.201,7.269,4.104,8.601,5.436c2.047,2.055,3.76,1.709,4.785,0.344c1.021-1.365-2.738-5.135-10.263-7.865
		c-1.012-0.365-2.101-0.939-3.229-1.654c-0.057-2.104-0.115-4.301-0.19-6.551c-0.175-5.291-2.805-10.482-5.45-14.324
		c-9.671-15.438-25.559-19.845-34.488-21.091c-9.767-6.437-18.879-5.281-18.879-5.281c-3.631-4.869-5.095-3.303-9.572-4.442
		c0,0,5.816,0,11.63,2.396c4.051,1.668,7.866,0.34,7.866,0.34s2.05-0.683,0-2.053c-2.053-1.364-19.494-7.181-33.348-5.297
		c-1.425,0.179-2.746,0.43-3.935,0.705c-1.188-0.275-2.512-0.526-3.933-0.705c-1.048-0.604-5.755-3.11-12.614-3.795
		c-7.026-0.703-17.742,0.45-28.89,9.926c-0.865,0.732-0.968,2.026-0.233,2.895c0.405,0.477,0.979,0.721,1.561,0.721
		c0.473,0,0.943-0.159,1.326-0.486c10.861-9.229,21.084-9.916,28.012-8.716c-4.475,1.14-8.955,3.646-12.582,8.517
		c0,0-9.117-1.153-18.879,5.281c-9.636,1.342-27.361,6.354-36.645,24.921c-0.506,1.018-0.096,2.244,0.918,2.752
		c0.295,0.148,0.607,0.223,0.918,0.223c0.75,0,1.477-0.416,1.836-1.139c6.518-13.04,17.664-18.73,26.45-21.219
		c-1.007,1.074-2.007,2.247-2.981,3.542c0,0-17.438,9.919-22.912,30.78l-1.26,3.982c-5.14,9.873-12.112,20.85-19.199,24.641
		c-0.997,0.535-1.377,1.777-0.843,2.775c0.372,0.689,1.081,1.086,1.813,1.086c0.323,0,0.657-0.076,0.966-0.24
		c3.536-1.895,6.981-5.258,10.196-9.316c-0.1,0.293-0.25,0.752-0.439,1.363c-5.898,8.258-15.131,23.932-15.855,41.964
		c-0.042,1.134,0.839,2.091,1.971,2.136c0.026,0,0.057,0,0.086,0c1.092,0,2.004-0.867,2.047-1.972
		c0.423-10.542,4.063-20.384,8.104-28.205c-1.164,5.594-2.084,11.896-1.951,17.524c0.119,4.923-0.006,8.902-0.217,12.035
		c-0.254,0.312-0.42,0.703-0.456,1.14c-0.026,0.332-2.87,33.629-17.872,48.637c-0.801,0.802-0.801,2.101,0,2.9
		c0.398,0.397,0.93,0.604,1.449,0.604c0.529,0,1.051-0.203,1.449-0.604c8.398-8.396,13.188-21.591,15.869-32.49
		c0.19,4.293-0.109,9.119-1.656,13.179c-2.352,4.174-15.322,28.166-15.322,50.351c0,1.137,0.926,2.053,2.057,2.053
		c1.129,0,2.047-0.916,2.047-2.053c0-13.728,5.447-28.584,9.8-38.273c0.37-0.604,0.751-1.196,1.146-1.731
		c0,0-3.076,10.603-5.129,20.519l0.178,0.224c-1.023,6.774-1.501,16.768,2.432,24.633c0.361,0.721,1.085,1.137,1.842,1.137
		c0.305,0,0.618-0.071,0.913-0.221c1.013-0.506,1.423-1.736,0.917-2.75c-4.068-8.142-2.646-19.438-1.475-25.334
		c0.784-3.728,2.132-8.272,4.425-12.049c0,0-2.396,16.752,1.368,29.065l0.438,0.805c1.055,4.08,2.695,9.125,5.236,14.44
		c3.975,8.312,12.378,13.625,12.731,13.854c0.341,0.207,0.714,0.31,1.084,0.31c0.683,0,1.353-0.345,1.743-0.964
		c0.6-0.961,0.309-2.227-0.648-2.825c-0.068-0.043-5.936-3.771-9.717-9.517l-0.607-7.896l0.686-5.812l1.367-2.395l0.683,7.518
		c0,0-0.343,4.105,2.054,2.06c2.389-2.06,2.049-3.767,2.049-3.767l1.367-9.574l0.65,2.857c0.202,4.117-0.089,8.904-1.576,13.623
		c-0.344,1.082,0.258,2.23,1.34,2.576c0.203,0.062,0.412,0.098,0.613,0.098c0.875,0,1.68-0.562,1.958-1.438
		c2.155-6.831,2.083-13.679,1.462-18.851c-0.003-5.082-0.344-9.463-0.344-9.463s1.713,7.865,5.133,12.307
		c3.416,4.449,6.496,10.604,6.496,10.604l0.121-0.041c2.057,3.662,4.539,7.09,7.469,9.494c0.383,0.312,0.844,0.465,1.3,0.465
		c0.595,0,1.183-0.254,1.589-0.75c0.721-0.871,0.593-2.17-0.285-2.885c-4.59-3.771-8.059-10.742-10.356-16.645
		c0.652-0.09,1.747-0.039,2.217,1.125c0.683,1.713,2.391,5.477,2.391,5.477s2.396,0.682,3.079-0.348
		c0.683-1.021,0.683-2.391,0.683-2.391l-0.341-4.789c0,0,1.709,0,2.395,3.078c0.684,3.078,5.13,5.812,5.13,5.812
		s-0.258-0.652-0.633-1.688c1.032,1.557,2.225,3.062,3.604,4.482c0.402,0.416,0.94,0.628,1.475,0.628
		c0.516,0,1.027-0.194,1.426-0.58c0.814-0.784,0.835-2.086,0.047-2.896c-9.82-10.146-9.012-25.99-8.998-26.152
		c0.02-0.432-0.091-0.842-0.297-1.186c-0.024-0.82-0.043-1.33-0.043-1.33l1.022-5.812c0,0,2.054,6.153,2.054,8.892
		c0,2.733,0,2.733,0,2.733l3.023-1.005c0.049,1.104,0.079,2.219,0.055,3.355c-0.024,1.135,0.875,2.07,2.008,2.092
		c0.016,0,0.029,0,0.043,0c1.116,0,2.028-0.887,2.051-2.004c0.247-11.781-3.512-21.729-5.913-26.846
		c-1.128-2.82-1.903-3.67-1.903-3.67l3.028-9.539l0.038-0.186c-0.1-0.312-0.17-0.635-0.258-0.941
		c-7.211-12.938-5.695-29.73-6.918-35.27c-1.42-6.414-3.404-12.819-1.137-19.521c0.525-1.555,1.037-3.828,1.511-6.4l2.027,1.203
		c0.422-2.062,0.822-4.854,1.184-7.932l0.494-1.066c0.978,1.604,2.188,3.277,3.399,4.111c2.735,1.879,4.62-0.516,2.568-3.59
		c-2.053-3.08-2.909-6.156-4.105-8.896c-1.195-2.731-0.684-9.061-0.684-9.061s2.053,9.574,4.956,11.627
		c2.909,2.051,2.398-1.539,1.028-4.443c-1.367-2.908-4.615-12.311-2.393-15.219c0,0,2.563,10.941,6.839,16.242
		c4.274,5.301,5.301,2.225,3.249-2.053c-2.052-4.271-5.643-10.43-5.475-15.898c0,0,3.251,8.035,5.988,10.26
		c0,0,0.855,1.021,2.049-1.027c1.199-2.053-0.683-4.445-1.193-5.301c-0.516-0.854-4.791-9.918,0.342-15.899
		c0,0-1.197,6.323,0,10.598c0,0,0.341,2.227,1.539,2.227c1.195,0,2.116-0.473,2.221-3.42c0.344-9.576,4.331-9.802,4.331-9.802
		s10.942,12.767,5.925,31.231c0,0-0.453,1.597,1.371,2.28c1.824,0.684,3.193-1.371,3.193-1.371s5.014-20.291-4.332-31.23
		c0,0,10.201,6.841,10.542,16.927c0.344,10.086-0.168,12.312-0.168,12.312s-0.172,2.052,1.709,2.052
		c1.883,0,2.394-3.078,2.394-5.129c0-2.053,0.172-11.627-2.052-17.781c0,0,3.765,8.549,5.132,14.873
		c1.368,6.328,4.103,8.207,5.813,7.524c1.709-0.687-0.688-3.765-1.716-5.132c-1.021-1.364-5.127-12.991-1.537-17.609
		c0,0,4.787,5.984,4.962,10.26c0.172,4.274-1.197,5.643,0.854,5.643c2.05,0,3.927-5.301,3.419-8.719
		c-0.519-3.418-1.537-6.668-1.537-6.668s6.668,3.762,7.008,9.744c0.345,5.985-3.42,9.404-3.42,9.404s-0.344,1.881,1.366,1.709
		c1.714-0.171,3.938-4.615,4.443-8.035c0.519-3.422-0.512-8.72-0.512-8.72s4.104,11.798,6.67,15.216
		c2.562,3.42,3.248,3.764,4.273,2.564c1.023-1.196-1.025-3.25-1.885-4.959c-0.854-1.711-3.592-9.576-2.731-11.797
		c0,0,8.892,5.471,9.058,12.312c0,0-0.166,3.247,0.854,3.418c1.024,0.172,2.056-0.341,2.056-3.589c0-2.582,0.573-6.845,0.812-8.491
		l0,0c0.027-0.201,0.051-0.363,0.064-0.482c0.006-0.02,0.006-0.039,0.012-0.057c0.016-0.093,0.023-0.146,0.023-0.146
		s0.021,0.369,0.059,1.011c0.145,0.282,0.271,0.56,0.396,0.829c0.938,3.826,3.041,12.953,3.896,20.557
		c0.125,0.125,0.254,0.262,0.383,0.393c0.732,5.174,1.658,10.521,2.635,13.398c2.268,6.701,0.281,13.105-1.139,19.521
		c-1.297,5.874,0.488,24.441-8.352,37.595c-0.884,2.407-2.096,4.728-3.762,6.864l0.475,1.477c0,0-0.775,0.85-1.908,3.67
		c-0.146,0.312-0.301,0.65-0.459,1.01c-0.119,0.055-0.235,0.111-0.32,0.144c-0.836,0.338-1.426,2.978-2.334,6.892
		c-0.682,2.184-1.309,4.602-1.803,7.213c-0.715,2.562-1.594,5.309-2.703,8.123c-4.443,11.289-8.547,13.68-8.547,13.68l0.051,0.011
		c-1.492,1.103-2.463,1.978-2.102,3.409c0.682,2.736,5.146,0.328,8.547-2.395c0.388-0.263,0.77-0.556,1.146-0.867
		c-0.062,1.813-0.122,3.787-0.122,5.313c0,3.763,4.104,2.052,4.442-5.476c0.068-1.553,0.351-3.367,0.736-5.271
		c4.562-6.02,7.811-13.191,7.811-13.191s-0.021,0.512-0.043,1.33c-0.209,0.346-0.319,0.755-0.301,1.188
		c0.011,0.132,0.521,10.271-4.272,19.515c-1.248,1.908-2.724,4.102-4.08,5.938c-0.211,0.229-0.423,0.468-0.644,0.698
		c-0.215,0.214-0.354,0.466-0.448,0.729c-0.546,0.688-1.054,1.288-1.488,1.722c-3.075,3.076-4.104,9.918-1.37,10.944
		c2.736,1.023,3.42-0.346,4.104-4.448c0.332-1.971,0.986-4.016,1.98-5.949c0.059-0.047,0.116-0.09,0.172-0.146
		c1.379-1.425,2.569-2.931,3.604-4.484c-0.375,1.035-0.63,1.689-0.63,1.689s4.448-2.734,5.13-5.812
		c0.684-3.077,2.395-3.077,2.395-3.077l-0.344,4.788c0,0,0,1.367,0.684,2.393c0.688,1.025,3.078,0.348,3.078,0.348
		s1.711-3.764,2.396-5.478c0.465-1.164,1.562-1.215,2.215-1.125c-2.297,5.899-5.764,12.871-10.354,16.646
		c-0.879,0.715-1.008,2.014-0.283,2.885c0.406,0.496,0.994,0.75,1.583,0.75c0.46,0,0.922-0.148,1.3-0.465
		c2.742-2.252,5.086-5.396,7.062-8.787c-0.068,0.828-0.123,1.633-0.146,2.41c-0.344,10.604-0.344,10.604,2.734,10.604
		c3.076,0,1.024-3.424,1.024-7.521c0-2.221,0.897-8.717,1.827-14.552c0.516-0.76,1.043-1.51,1.584-2.212
		c3.423-4.439,5.132-12.308,5.132-12.308s-0.338,4.381-0.343,9.463c-0.594,4.925-0.664,11.367,1.193,17.875
		c-1.84,1.312-3.969,2.196-4.609,2.408c-1.023,0.342,0.688,3.422,3.078,3.079c2.396-0.344,8.207-5.129,9.574-10.26
		c0.646-2.43,1.141-5.461,1.48-7.996l1.248,2.187l0.688,5.812l-0.613,7.896c-3.775,5.746-9.645,9.476-9.711,9.519
		c-0.958,0.6-1.251,1.863-0.646,2.824c0.387,0.618,1.06,0.965,1.737,0.965c0.374,0,0.748-0.104,1.085-0.312
		c0.354-0.229,8.762-5.543,12.729-13.854c0.101-0.214,0.188-0.424,0.291-0.633c0.235,3.178,0.386,6.215,0.263,7.955
		c-0.341,4.786,1.705,4.104,3.075,3.764c1.365-0.346,3.074-1.031,1.365-8.553c-0.644-2.822-1.043-7.291-1.295-11.763
		c0.618-1.854,1.123-3.606,1.534-5.216l0.438-0.805c0.527-1.733,0.935-3.551,1.24-5.397c1.529,4.246,2.783,7.618,3.213,8.478
		c0.273,0.551,0.65,1.336,1.074,2.262c-0.336,1.025-0.73,2.021-1.207,2.979c-0.508,1.014-0.1,2.243,0.916,2.75
		c0.295,0.146,0.606,0.221,0.916,0.221c0.646,0,1.26-0.322,1.65-0.865c1.188,2.703,2.311,5.363,2.803,6.674
		c1.023,2.738,1.709,2.738,3.078,0.688c1.016-1.521-1.361-6.632-4.059-11.818c2.104-6.994,1.645-14.818,0.793-20.443l0.184-0.223
		c-2.055-9.916-5.131-20.518-5.131-20.518c0.396,0.533,0.775,1.127,1.146,1.729c4.354,9.69,9.799,24.55,9.799,38.274
		c0,1.135,0.914,2.051,2.049,2.051s2.055-0.916,2.055-2.051c0-22.186-12.97-46.177-15.316-50.352
		c-1.547-4.059-1.848-8.885-1.657-13.178c2.687,10.9,7.471,24.094,15.868,32.49c0.396,0.396,0.924,0.604,1.449,0.604
		c0.521,0,1.051-0.203,1.449-0.604C242.484,213.379,242.484,212.08,241.684,211.279z M200.841,249.096
		c-0.614-3.354-0.728-6.633-0.585-9.572l0.648-2.855l2.664,1.631C202.962,241.092,201.805,246.197,200.841,249.096z
		 M225.167,223.412c0.821,4.113,1.754,10.859,0.862,17.318c-1.357-2.781-3.051-8.35-4.604-14.086
		c0.31-8.277-0.687-15.281-0.687-15.281C223.036,215.137,224.382,219.686,225.167,223.412z"/>
	<path fill="#F4D809" d="M135.131,154.617c-5.244,0-8.159,2.625-12.821,5.828c-4.664,3.203-8.449-0.582-12.236,0
		c-3.789,0.586-5.539,4.373-4.955,6.703c0.581,2.328,3.786,2.041,10.196,2.621c6.411,0.582,11.657-1.459,15.151-5.535
		c1.876-2.191,3.499-2.783,4.599-2.865l0.781,0.004c1.104,0.104,2.694,0.725,4.531,2.861c3.495,4.076,8.741,6.117,15.15,5.535
		c6.41-0.58,9.615-0.293,10.197-2.621c0.582-2.33-1.166-6.117-4.955-6.703c-3.787-0.582-7.572,3.203-12.237,0
		c-4.66-3.203-7.572-5.828-12.816-5.828H135.131z"/>
</g>
</svg>
