<?xml version="1.0" encoding="utf-8"?>
<!-- Generator: Adobe Illustrator 16.0.0, SVG Export Plug-In . SVG Version: 6.00 Build 0)  -->
<!DOCTYPE svg PUBLIC "-//W3C//DTD SVG 1.1//EN" "http://www.w3.org/Graphics/SVG/1.1/DTD/svg11.dtd">
<svg version="1.1" id="Camada_1" xmlns="http://www.w3.org/2000/svg" xmlns:xlink="http://www.w3.org/1999/xlink" x="0px" y="0px"
	 width="256px" height="306px" viewBox="0 0 256 306" enable-background="new 0 0 256 306" xml:space="preserve">
<rect y="0" fill="#168536" width="256" height="306"/>
<g>
	<g>
		<path fill="#ED823A" d="M203.559,170.326H187.83c1.064-6.801,1.051-15.207-2.729-22.851
			c-6.115-12.373-15.771-25.269-17.662-34.412l0,0c-2.967,1.396-5.711,4.435-5.826,10.877c0,0-6.229-7.26-3.213-15.521
			c-1.248,2.729-5.311,9.612-14.402,9.19c0,0,7.299-1.846,4.531-10.283c0,0-1.51-5.537-7.299-3.689
			c-5.787,1.846-5.035,8.174-5.035,8.174l-5.787-10.021c0,0,0,15.818-18.373,16.348c0,0,8.559-4.482,9.312-12.654
			c0,0,1.26-7.646-8.053-7.646s-5.787,8.967-5.787,8.967s2.516,3.428,6.291,2.106c0,0-4.279,6.063-12.584,2.108
			c0,0,0.5,8.457-7.299,9.522c-2.08,8.208-8.512,17.617-13.117,26.934c-3.777,7.644-3.791,16.051-2.729,22.851H62.346l5.32,15.692
			c-0.057,0.687-0.096,1.381-0.096,2.092c0,8.341,4.053,15.099,9.055,15.099c3.885,0,7.188-4.085,8.475-9.812
			c4.578,13.797,12.479,37.568,12.479,37.568s13.701,26.071,30.758,26.071h9.229c17.057,0,30.76-26.071,30.76-26.071
			s7.9-23.771,12.48-37.568c1.281,5.729,4.59,9.812,8.471,9.812c5.004,0,9.059-6.758,9.059-15.099c0-0.711-0.041-1.405-0.1-2.092
			L203.559,170.326z"/>
	</g>
	<path fill="#F4D809" d="M225.592,179.333c4.826-2.914,9.029,4.812,9.029,4.812c3.443-7.086-2.533-10.819-5.746-12.248
		c0.963-1.604,1.527-3.494,1.527-5.525c0-5.745-4.443-10.396-9.926-10.396c-0.141,0-0.271,0.014-0.402,0.021
		c0.686-1.94,0.865-3.832-0.297-5.292c-1.805-2.268-4.951-2.854-7.955-2.787c3.318-3.672,1.943-8.443,1.943-8.443
		c0.141,7.468-9.719,5.54-9.719,5.54l-4.734-12.33c3.236-4.892,9.223-16.998-2.746-26.803
		c-15.379-12.597-24.811-25.139-24.811-25.139s-1.781-16.298-19.221-19.137c-0.479-2.975-2.029-7.379-7.057-8.151
		c-3.479-0.536-7.381,1.452-10.604,3.792c-3.252-0.775-6.732-1.587-10.23-2.368c-1.373-0.308-2.672-0.441-3.906-0.446
		c-2.312-4.146-7.105-8.366-16.93-5.961c0,0,7.523,2.534,8.516,8.307c-1.543,0.912-2.93,2.021-4.18,3.204
		c-5.049,1.044-11.891,3.354-14.982,8.423c-3.039,4.98-4.611,10.849-5.396,14.879c-2.311,2.263-11.443,11.7-14.992,14.297
		c-9.5,6.95-6.363,17.104-3.768,22.373l-8.549-0.651c0,0-5.641,2.302-5.209,5.698c0.43,3.399,1.982,5.558,1.982,5.558l-1.037,14.458
		c0,0-9.855,1.928-9.717-5.54c0,0-2.109,7.312,5.172,10.792c0,0-11.162-1.379-10.506,10.474c0,0-8.613,0.109-7.93,10.468
		c0,0-12.186,3.485-7.592,12.944c0,0,4.203-7.729,9.031-4.812c4.826,2.914,6.963,9.104,2.119,15.786
		c-4.844,6.684-7.793,20.699,5.473,27.062c0,0,1.367,16.213,14.094,13.037c0.121-0.033,0.242-0.063,0.365-0.104
		c13.066-3.581-1.432,14.97,17.4,13.92c18.836-1.05,13.258-16.732,13.258-16.732s5.637,3.045,10.381-1.025
		c-0.109-0.2-0.168-0.312-0.168-0.312s-7.9-23.773-12.479-37.57c-1.287,5.729-4.59,9.812-8.475,9.812
		c-5.002,0-9.055-6.758-9.055-15.099c0-0.711,0.039-1.405,0.096-2.092l-1.691-4.987l2.85-4.423l1.244,3.094
		c4.193-0.326,4.658-6.021,4.658-6.021c1.709,5.692,8.389,8.623,8.389,8.623c-6.773-9.936-4.768-25.271-3.168-32.917
		c0.264-0.644,0.541-1.278,0.852-1.911c4.605-9.314,11.037-18.726,13.117-26.934c7.799-1.065,7.299-9.522,7.299-9.522
		c8.305,3.955,12.584-2.108,12.584-2.108c-3.775,1.319-6.291-2.106-6.291-2.106s-3.525-8.965,5.787-8.965s8.053,7.646,8.053,7.646
		c-0.754,8.172-9.312,12.654-9.312,12.654c18.372-0.527,18.372-16.348,18.372-16.348l5.785,10.021c0,0-0.752-6.328,5.035-8.174
		c5.789-1.848,7.299,3.689,7.299,3.689c2.771,8.438-4.528,10.283-4.528,10.283c9.096,0.422,13.151-6.461,14.399-9.188
		c-3.015,8.259,3.213,15.519,3.213,15.519c0.115-6.442,2.859-9.479,5.826-10.877c1.838,8.882,11.319,21.168,17.146,33.327
		c-0.043,0.09-0.064,0.183-0.043,0.277c0.152,0.65,2.482,9.768,2.482,9.768s1.709,16.597-7.146,25.707c0,0,5.156-0.928,9.189-5.545
		c0.562,1.644,1.602,3.512,3.545,4.896l1.865-3.74l4.152,7.088l-0.4,1.183c0.061,0.688,0.102,1.382,0.102,2.094
		c0,8.34-4.057,15.1-9.061,15.1c-3.881,0-7.188-4.085-8.473-9.812c-4.578,13.797-12.479,37.57-12.479,37.57
		s-0.472,0.896-1.344,2.352c3.219,0.435,5.897-1.014,5.897-1.014s-4.839,17.701,12.78,17.701c0,0-6.151-7.32-0.28-8.787
		c0,0,6.435-2.637,8.67,1.467c0,0,4.19,4.396,8.392,1.756c4.19-2.637,3.791-8.817,3.913-8.787
		c12.728,3.176,11.646-13.471,11.646-13.471c9.234-4.432,10.607-12.562,8.959-19.356l6.24-6.72c0,0-6.987,0.13-11.545-4.213
		C219.418,186.501,221.553,181.77,225.592,179.333z"/>
	<path fill="#F4D809" d="M130.439,125.208c-1.791,5.18-8.111,8.537-12.708,8.767c-5.148,0.252-7.586,2.101-8.715,3.548
		c0,0-1.334,2.292-3.406,1.812c-2.07-0.476-1.273-5.894,2.709-7.01c3.982-1.115,9.559,2.867,13.223-1.592
		c3.664-4.462,4.781-9.4,7.01-9.24C128.553,121.491,131.689,121.596,130.439,125.208z"/>
	<path fill="#F4D809" d="M136.305,128.909c1.791,5.18,6.725,6.042,11.32,6.271c5.148,0.253,7.586,2.102,8.715,3.548
		c0,0,1.334,2.293,3.406,1.812c2.07-0.477,1.273-5.895-2.709-7.01s-9.559,2.867-13.223-1.592c-3.664-4.462-3.396-6.903-5.623-6.743
		C138.191,125.194,135.057,125.299,136.305,128.909z"/>
</g>
</svg>
