<?xml version="1.0" encoding="utf-8"?>
<!-- Generator: Adobe Illustrator 16.0.0, SVG Export Plug-In . SVG Version: 6.00 Build 0)  -->
<!DOCTYPE svg PUBLIC "-//W3C//DTD SVG 1.1//EN" "http://www.w3.org/Graphics/SVG/1.1/DTD/svg11.dtd">
<svg version="1.1" id="Camada_1" xmlns="http://www.w3.org/2000/svg" xmlns:xlink="http://www.w3.org/1999/xlink" x="0px" y="0px"
	 width="256px" height="306px" viewBox="0 0 256 306" enable-background="new 0 0 256 306" xml:space="preserve">
<rect fill="#F4D809" width="256" height="306"/>
<g>
	<g>
		<path fill="#168536" d="M215.775,125.933c0,0,5.674-3.041,3.646-7.905c-2.026-4.859-9.116-3.643-9.116-3.643
			s6.482-4.46,3.24-9.118c-3.24-4.661-10.133-3.242-10.133-3.242s5.473-4.256,2.23-15.4c-3.239-11.145-17.02-7.905-17.02-7.905
			c2.231-5.671-1.824-12.764-6.484-15.396c-4.66-2.634-10.535-0.813-10.535-0.813s-4.459-11.144-12.967-11.344
			c-8.51-0.203-11.756,5.065-11.756,5.065s-1.618-6.686-12.354-8.509c-10.741-1.823-14.791,7.496-14.791,7.496
			s-1.22-5.064-10.338-6.483c-9.121-1.421-13.978,7.092-13.978,7.092s-8.269-5.616-17.829,2.229
			c-7.906,6.483-5.473,12.969-5.473,12.969s-8.51,2.025-6.888,7.696c0,0-10.336-0.806-9.524,10.741c0,0-10.331,0.406-11.956,8.916
			c-1.616,8.509,3.853,10.129,3.853,10.129s-10.538,3.24-13.172,20.465c-2.633,17.223,14.794,21.478,14.794,21.478
			s-5.272,2.635-6.081,10.741c-0.81,8.101,7.902,7.898,7.902,7.898s-2.228,9.318,6.076,10.74l6.486,11.145
			c0,0-9.407-4.088-16.412,6.28c-5.062,7.497,1.42,12.562,1.42,12.562s-5.067-1.417-7.501,3.85
			c-1.894,4.109,1.753,6.477,4.889,5.889c-2.726,1.782-6.414,5.706-3.262,12.958c4.657,10.735,15.395,8.303,18.434,2.023
			c0,0-4.865,12.767,7.498,14.995c12.357,2.229,13.979-9.117,12.969-11.754c0,0,6.596,8.984,14.627-1.215
			c-0.602-0.495-1.218-0.992-1.866-1.487c-7.294-5.599-8.51-14.398-10.029-24.002c-1.518-9.598-7.903-20.97-13.982-34.319
			c-2.142-4.715-3.327-8.607-3.806-12.184c0.814,0.025,1.649-0.154,2.492-0.611c6.279-3.448,1.621-17.631,1.621-17.631
			c9.929-8.913,5.371-19.856,5.371-19.856c5.466-0.406,3.947-7.902,3.947-7.902s1.218,5.268,8.512,4.861
			c5.238-0.288,5.772-4.853,5.657-7.409c0.683,3.906,3.924,13.087,19.264,11.666c13.806-1.277,14.997-18.465,15.022-23.892
			c0.617,13.561,11.315,11.126,11.315,11.126s0.205,7.093,10.541,7.702c10.331,0.606,10.536-9.118,10.536-9.118
			c4.984,12.192,16.882,4.34,18.936,2.863c-0.757,0.673-2.533,3.057-0.902,9.901c2.027,8.51,7.498,12.967,7.498,12.967
			s-4.561,5.166,0.402,13.376c1.949,3.217,4.143,4.405,5.965,4.739c0.708,5.715-0.188,11.385-3.839,19.402
			c-6.077,13.35-12.459,24.722-13.979,34.319c-1.521,9.604-2.735,18.403-10.03,24.002c-1.076,0.821-2.076,1.651-3.038,2.478
			l1.216,0.024c2.23,18.235,19.045,7.292,19.045,7.292s1.217,7.701,7.293,5.877c6.078-1.826,5.876-8.914,5.876-8.914
			s10.536,7.498,16.21-0.408c5.676-7.899-2.025-14.588-2.025-14.588s9.322-3.036,7.701-12.764c-1.113-6.676-7.467-7.337-11.35-7.096
			c1.196-0.521,2.393-1.611,2.839-3.845c1.015-5.067-5.271-6.483-5.271-6.483s5.473-2.637,4.66-8.104
			c-0.805-5.472-8.711-6.079-8.711-6.079l0.404-16.008c0,0,6.689,5.065,9.727,0.404c3.041-4.66,0-10.738,0-10.738
			c7.495-6.077,1.619-14.385,1.619-14.385s7.703-0.609,9.319-7.498C222.056,127.351,215.775,125.933,215.775,125.933z"/>
	</g>
	<path fill="#ED823A" d="M191.053,153.894c-0.775,0.043-1.479,0.563-2.125,1.41c-0.724-0.685-1.443-1.557-2.133-2.691
		c-4.961-8.21-0.401-13.376-0.401-13.376s-5.47-4.458-7.497-12.967c-1.63-6.844,0.146-9.228,0.9-9.901
		c-2.051,1.477-13.949,9.329-18.934-2.863c0,0-0.204,9.724-10.537,9.118c-10.334-0.609-10.539-7.702-10.539-7.702
		s-10.699,2.435-11.314-11.126c-0.028,5.427-1.22,22.615-15.024,23.892c-15.339,1.421-18.582-7.759-19.264-11.666
		c0.115,2.556-0.419,7.121-5.659,7.409c-7.292,0.407-8.51-4.861-8.51-4.861s1.519,7.496-3.949,7.902c0,0,4.56,10.943-5.37,19.856
		c0,0,2.314,7.084,1.456,12.46c-1.053-2.909-2.334-4.805-3.887-4.894c-7.094-0.405-11.144,9.727-11.349,20.057
		c-0.202,10.334,4.258,18.848,7.701,22.897c3.446,4.054,5.876,5.469,9.724,4.054c3.85-1.422,2.433-8.514,2.433-8.514
		s-0.033-0.871-0.113-2.332c3.678,7.789,6.722,14.78,7.71,21.017c1.519,9.604,2.735,18.403,10.029,24.002
		c7.294,5.601,11.549,11.198,18.238,17.2c6.683,6.002,10.942,7.602,17.02,7.199c6.076,0.402,10.332-1.197,17.02-7.199
		s10.939-11.6,18.234-17.2c7.295-5.599,8.51-14.398,10.032-24.002c0.987-6.241,4.033-13.235,7.712-21.032
		c-0.078,1.473-0.111,2.348-0.111,2.348s-1.42,7.092,2.432,8.514c3.846,1.415,6.277,0,9.727-4.054
		c3.442-4.05,7.9-12.563,7.697-22.897C202.2,163.621,198.147,153.489,191.053,153.894z"/>
	<path fill="#168536" d="M129.662,208.602c0,0,4.455,3.647,10.533,3.647l20.26,1.618c0,0,0.813-11.342-9.318-12.561
		c-10.127-1.215-20.262-1.619-20.262-1.619h-2.431c0,0-10.131,0.404-20.259,1.619c-10.135,1.219-9.322,12.561-9.322,12.561
		l20.261-1.618C125.206,212.249,129.662,208.602,129.662,208.602z"/>
</g>
</svg>
