<?xml version="1.0" encoding="utf-8"?>
<!-- Generator: Adobe Illustrator 16.0.0, SVG Export Plug-In . SVG Version: 6.00 Build 0)  -->
<!DOCTYPE svg PUBLIC "-//W3C//DTD SVG 1.1//EN" "http://www.w3.org/Graphics/SVG/1.1/DTD/svg11.dtd">
<svg version="1.1" id="Camada_1" xmlns="http://www.w3.org/2000/svg" xmlns:xlink="http://www.w3.org/1999/xlink" x="0px" y="0px"
	 width="256px" height="306px" viewBox="0 0 256 306" enable-background="new 0 0 256 306" xml:space="preserve">
<rect y="0" fill="#ED823A" width="256" height="306"/>
<g>
	<path fill="#F4D809" d="M200.624,147.278c-2.215-6.305-5.281-6.816-10.224-5.623c-3.694,0.893-6.817,6.262-8.157,8.912
		c0.905-4.564,3.521-8.43,5.317-11.775c0,0,10.678-13.266-0.229-35.756c-13.104-27.02-50.891-26.144-50.891-26.144h-16.128
		c0,0-37.789-0.876-50.888,26.144c-10.904,22.49-0.227,35.756-0.227,35.756c2.35,4.375,6.098,9.64,5.594,16.194
		c-0.134-1.823-0.256-2.938-0.256-2.938s-3.918-9.198-8.859-10.393c-4.941-1.194-8.008-0.682-10.223,5.623
		c-2.215,6.303-8.179,14.312-2.215,24.022c5.963,9.712,4.43,17.892,14.652,15.677c0.035-0.008,0.067-0.023,0.103-0.033
		c1.634,3.768,4.421,7.438,8.473,10.883c0,0,0.796,11.131-1.589,19.312c-2.386,8.18-7.156,26.577,16.016,27.604
		c0,0,9.899,1.092,11.245,6.475c2.726,10.904,6.475,12.269,17.38,12.607h18.4c10.904-0.34,14.653-1.703,17.379-12.607
		c1.347-5.383,11.246-6.475,11.246-6.475c23.172-1.022,18.397-19.424,16.019-27.604c-2.385-8.181-1.592-19.312-1.592-19.312h-0.685
		c4.006-3.402,6.771-7.029,8.414-10.748c9.646,1.818,8.272-6.233,14.135-15.774C208.803,161.591,202.839,153.581,200.624,147.278z"
		/>
	<path fill="#168536" d="M107.367,80.147c0,0,2.499-5.226-3.18-11.133c-5.681-5.905-5.681-5.905-5.681-5.905
		s9.542,5.225,11.814,9.087c0,0-10.678-15.675-10.451-14.993c0.229,0.681,7.951,6.587,7.951,6.587l-7.95-12.949l7.497,7.496
		l-9.313-16.811l10.223,11.586l-1.818-9.541l6.361,10.223l-2.045-16.355l4.771,13.855l0.228-13.63l2.271,13.857
		c0,0,2.272-13.402,2.5-12.722c0.227,0.683,0.908,14.084,0.908,14.084l6.814-11.586l-1.589,13.178l4.544-10.45l-0.229,9.541
		l8.858-18.174l-4.313,15.9l5.905-6.814l-2.498,6.361l12.949-12.722l-9.998,14.766c0,0,10.68-6.134,13.857-6.134
		c0,0-9.542,5.681-12.041,10.904c0,0,8.86-4.543,14.994-3.407c0,0-10.227,3.181-14.77,9.771c0,0,8.18-2.955,11.135-2.728
		c0,0-7.498,5.225-9.771,10.224l7.951-3.182c0,0-5.227,4.771-6.134,9.087l1.815,3.861l-4.998-1.135l2.728,5.452l-6.136-4.998
		l-1.361,7.951l-2.045-7.271l-3.407,7.271l-2.497-5.681l-3.409,4.999l-1.363-5.227l-8.633,6.134l3.635-6.588l-11.131,2.727
		l5.906-3.636l-11.359,1.363L107.367,80.147z"/>
</g>
</svg>
