<?xml version="1.0" encoding="utf-8"?>
<!-- Generator: Adobe Illustrator 16.0.0, SVG Export Plug-In . SVG Version: 6.00 Build 0)  -->
<!DOCTYPE svg PUBLIC "-//W3C//DTD SVG 1.1//EN" "http://www.w3.org/Graphics/SVG/1.1/DTD/svg11.dtd">
<svg version="1.1" id="Camada_1" xmlns="http://www.w3.org/2000/svg" xmlns:xlink="http://www.w3.org/1999/xlink" x="0px" y="0px"
	 width="256px" height="306px" viewBox="0 0 256 306" enable-background="new 0 0 256 306" xml:space="preserve">
<rect y="0" fill="#168536" width="256" height="306"/>
<g>
	<path fill="#F4D809" d="M221.756,175.057c9.208,5.133,17.43,0.922,18.229,0.485c-0.592,0.313-4.939,2.222-15.561-2.912
		c-7.314-3.532-10.521-12.394-11.889-18.354c2.167,1.522,4.062,2.058,4.062,2.058c-2.074-1.883-3.676-4.29-4.908-6.802
		c-0.084-0.695-0.114-1.103-0.114-1.103l6.096,4.908l-7.282-15.912l11.447,13.236c0,0-6.932-10.51-14.393-25.285l-0.147,0.146
		c-4.888-10.951-10.446-25.979-19.589-43.176c-13.859-26.072-49.091-33.118-61.072-29.599c-11.977,3.524-9.864,15.271-9.864,15.271
		l3.523,20.435c0,0,24.663,2.114,41.341,8.926c16.676,6.812,19.495,22.313,23.725,36.175c4.229,13.857,11.435,17.146,11.435,17.146
		l-8.128,52.607l0,0l-0.48,3.139c0,0-2.054,13.199-8.699,20.353l-0.463,3.769c-1.646,8.688,3.053,11.978,3.053,11.978
		c-0.704-9.396,7.753-16.676,7.753-16.676c-4.935,11.979,2.817,15.03,2.817,15.03c-4.697-9.396,3.992-18.086,3.992-18.086
		c-2.351,9.396,6.811,11.979,6.811,11.979s-6.811-7.517-2.112-15.501c4.694-7.984,2.112-13.857,2.112-13.857
		c3.287,2.11,4.936,10.805,4.936,10.805c4.461-9.159-1.646-15.504-1.646-15.504c5.641,3.996,9.16,13.625,9.16,13.625
		s1.654-8.133-5.838-16.201l-1.138-4.022l12.08,7.854l-5.604-11.143c4.639,5.371,12.401,7.146,12.401,7.146
		c-5.739-5.407-10.631-16.229-10.631-16.229c6.918,7.187,19.097,6.462,19.097,6.462
		C222.902,183.212,221.756,175.057,221.756,175.057z"/>
	<g>
		<path fill="#ED823A" d="M194.279,152.61c0,0,6.809-10.896,14.979-5.446c8.172,5.446-1.701,41.531-13.275,46.298
			c-11.571,4.769-8.512-4.767-8.512-4.767L194.279,152.61z"/>
	</g>
	<path fill="#F4D809" d="M112.778,68.016c0,0-5.639-11.273-16.913-8.691c-11.274,2.585-37.346,20.904-46.038,60.6
		c-8.691,39.697-19.729,65.536-19.729,65.536l9.864-16.208l-4.934,18.322l5.639-6.345c0,0,1.877,20.201-9.396,28.188
		c-11.274,7.986-16.208,5.873-16.208,5.873s10.102,3.758,19.495-3.759c0,0,0.236,8.926-13.152,16.677c0,0,13.152-1.41,19.262-10.333
		c0,0-3.29,12.447-8.455,19.258c0,0,7.984-3.284,11.977-9.862l-3.992,12.922l11.511-10.571l-1.41,12.918l10.804-14.562
		c0,0,1.409,13.39,1.646,12.685c0.233-0.705,6.812-11.979,6.812-11.979l8.454,11.041l1.41-13.627l6.343,10.103l-1.761-13.375
		c-4.332-7.196-5.755-16.378-5.755-16.378l-8.614-55.746c0,0-2.817-13.466,0.002-20.199c0,0,7.904-24.19,23.407-33.589
		c15.506-9.396,23.02-8.689,23.02-8.689L112.778,68.016z"/>
	<g>
		<path fill="#ED823A" d="M71.724,152.61c0,0-6.809-10.896-14.979-5.446c-8.17,5.446,1.702,41.531,13.276,46.298
			c11.575,4.769,8.511-4.767,8.511-4.767L71.724,152.61z"/>
	</g>
	<g>
		<path fill="#ED823A" d="M185.359,133.549c-4.229-13.857-7.049-29.36-23.729-36.173c-16.678-6.812-41.341-8.926-41.341-8.926
			l-3.523-20.435c0,0-0.011-0.061-0.024-0.156h-4.051c0.051,0.096,0.083,0.156,0.083,0.156l3.287,20.198
			c0,0-7.514-0.704-23.02,8.691c-15.503,9.396-23.407,33.589-23.407,33.589c-2.819,6.733-0.002,20.199-0.002,20.199l8.614,55.746
			c0,0,2.505,16.131,10.96,22.396l16.599,10.646c0,0,10.021,7.672,23.172,7.83h8.455c13.154-0.158,23.178-7.83,23.178-7.83
			l16.601-10.646c8.455-6.265,10.963-22.396,10.963-22.396l8.612-55.746C196.79,150.695,189.585,147.408,185.359,133.549z"/>
	</g>
	<path fill="#F4D809" d="M124.443,135.192l-23.02-6.42c0,0-11.114-1.723-16.756,6.42c0,0-2.346,3.604-2.034,7.517
		c0,0,1.099-7.357,8.144-9.394c7.046-2.038,12.527,0.312,12.527,0.312l18.165,7.202c0,0,3.144,1.729,4.696-1.096
		C127.89,136.603,124.443,135.192,124.443,135.192z"/>
	<path fill="#F4D809" d="M144.175,135.192l23.019-6.42c0,0,11.117-1.723,16.76,6.42c0,0,2.35,3.604,2.031,7.517
		c0,0-1.096-7.357-8.145-9.394c-7.045-2.038-12.523,0.312-12.523,0.312l-18.166,7.202c0,0-3.144,1.729-4.695-1.096
		C140.73,136.603,144.175,135.192,144.175,135.192z"/>
</g>
</svg>
