<?xml version="1.0" encoding="utf-8"?>
<!-- Generator: Adobe Illustrator 16.0.0, SVG Export Plug-In . SVG Version: 6.00 Build 0)  -->
<!DOCTYPE svg PUBLIC "-//W3C//DTD SVG 1.1//EN" "http://www.w3.org/Graphics/SVG/1.1/DTD/svg11.dtd">
<svg version="1.1" id="Camada_1" xmlns="http://www.w3.org/2000/svg" xmlns:xlink="http://www.w3.org/1999/xlink" x="0px" y="0px"
	 width="256px" height="306px" viewBox="0 0 256 306" enable-background="new 0 0 256 306" xml:space="preserve">
<rect fill="#A77DB5" width="256" height="306"/>
<g>
	<path fill="#41B9BF" d="M200.879,181.229c0,0,0.303-12.084-6.057-10.436c-3.295,0.854-7.151,3.107-10.11,5.081
		c-0.021-4.771-0.207-10.312-0.702-16.351c-1.588-19.375,6.352-32.711,6.352-32.711L157.016,91.24h-76.54l-28.901,35.572
		c0,0,7.939,13.337,6.352,32.711c-0.487,5.947-0.674,11.416-0.701,16.141c-2.914-1.922-6.619-4.047-9.795-4.871
		c-6.356-1.648-6.055,10.436-6.055,10.436c-1.817,13.729,5.449,22.517,12.713,24.715c2.076,0.627,3.977,0.268,5.635-0.563
		c2.486,7.794,8.281,17.753,21.705,24.972c0,0,13.021,10.16,31.442,10.16h16.193c18.422,0,31.444-10.16,31.444-10.16
		c13.503-7.262,19.291-17.301,21.753-25.113c1.721,0.929,3.715,1.365,5.903,0.705C195.43,203.744,202.695,194.958,200.879,181.229z"
		/>
	<path fill="#215863" d="M57.355,216.648c0.756-2.678,1.885-5.813,3.245-8.826c-0.327-0.831-0.626-1.65-0.878-2.443
		c-1.658,0.831-3.559,1.189-5.635,0.562c-1.682-0.51-3.359-1.385-4.93-2.578l-0.885,4.404c-0.366,1.823,0.814,3.598,2.637,3.965
		c0.224,0.045,0.446,0.068,0.668,0.068c0.084,0,0.166-0.02,0.248-0.023c-0.508,1.509-0.83,2.609-0.953,3.049
		c-0.504,1.788,0.539,3.648,2.328,4.15c0.306,0.086,0.611,0.127,0.914,0.127C55.584,219.104,56.937,218.135,57.355,216.648z
		 M37.653,193.141c-1.253,1.377-1.155,3.506,0.219,4.76c0.647,0.586,1.458,0.877,2.269,0.877c0.914,0,1.823-0.368,2.486-1.096
		c0.096-0.104,0.445-0.492,0.979-1.113c-1.137-2.26-1.953-4.877-2.307-7.834C39.176,191.447,37.705,193.084,37.653,193.141z
		 M218.02,158.42c-0.049-0.08-4.354-7.386-9.707-25.819c-0.197-8.586-2.088-18.61-8.011-27.666c1.46-0.844,2.095-2.658,1.403-4.242
		c-0.117-0.271-2.964-6.729-8.7-13.461c-3.522-4.137-7.385-7.471-11.483-9.969c-6.92-5.41-15.967-9.435-28.051-11.197
		c-1.104-1.543-2.309-2.868-3.633-3.87c-3.714-2.813-7.631-3.936-11.658-3.334c-4.826,0.721-8.478,3.833-10.379,5.827h-2.058
		c-2.593-3.267-6.818-4.874-12.623-4.766c-3.606,0.076-7.108,1.766-10.549,5.098c-16.835,0.175-31.919,7.031-44.837,20.413
		c-8.396,8.699-13.84,18.055-16.945,23.967l-8.481,6.852c-1.446,1.168-1.672,3.287-0.502,4.734c0.665,0.822,1.64,1.251,2.62,1.251
		c0.743,0,1.491-0.244,2.114-0.747l2.464-1.991c0.412,0.256,0.879,0.417,1.383,0.474c-6.175,14.613-7.062,27.344-7.101,27.899
		c-0.118,1.854,1.286,3.451,3.14,3.575c0.075,0.006,0.15,0.006,0.223,0.006c1.758,0,3.238-1.364,3.356-3.144
		c0.01-0.118,0.758-10.577,5.472-22.938c-0.033,0.253-0.081,0.514-0.108,0.765c-2.435,22.838-15.972,47.384-16.108,47.628
		c-0.904,1.627-0.32,3.678,1.303,4.579c0.52,0.29,1.081,0.427,1.635,0.427c1.182,0,2.33-0.623,2.944-1.729
		c0.415-0.744,7.475-13.546,12.454-29.581l-0.979,12.043c-6.248,12.932-12.723,23.477-12.835,23.658
		c-0.978,1.584-0.487,3.658,1.095,4.635c0.553,0.342,1.162,0.502,1.768,0.502c1.127,0,2.23-0.566,2.865-1.599
		c0.129-0.209,0.717-1.163,1.625-2.702c0.043-0.9,0.113-1.821,0.24-2.77c0,0-0.302-12.084,6.055-10.436
		c3.176,0.824,6.881,2.949,9.795,4.871c0.027-4.725,0.214-10.191,0.701-16.141c0.061-0.723,0.103-1.428,0.135-2.131
		c0.008-0.183,0.013-0.363,0.021-0.545c0.02-0.55,0.036-1.095,0.042-1.63c0.004-0.155,0.004-0.315,0.006-0.475
		c0.007-1.407-0.03-2.777-0.108-4.101c-0.317-5.27-1.258-9.869-2.328-13.581c-0.188-0.644-0.377-1.258-0.568-1.847
		c-1.726-5.329-3.551-8.403-3.551-8.403L62.5,113.365c5.514-2.363,14.984-7.274,22.447-15.527
		c-2.229,6.311-3.508,10.947-3.591,11.251c-0.491,1.792,0.563,3.646,2.358,4.137c0.297,0.081,0.598,0.12,0.891,0.12
		c1.479,0,2.836-0.982,3.245-2.477c1.675-6.116,4.052-13.071,6.81-19.629h6.406l-3.555,16.438c-0.394,1.816,0.761,3.609,2.578,4.003
		c0.24,0.051,0.48,0.075,0.716,0.075c1.552,0,2.946-1.079,3.286-2.654l3.861-17.862h0.637l-1.257,7.026
		c-0.328,1.832,0.891,3.584,2.72,3.908c0.201,0.036,0.399,0.055,0.598,0.055c1.6,0,3.018-1.145,3.311-2.773l1.471-8.216h1.832
		l-3.169,10.456c-0.54,1.78,0.466,3.659,2.245,4.199c0.324,0.1,0.653,0.146,0.977,0.146c1.445,0,2.781-0.938,3.223-2.391
		l3.761-12.41h3.372l1.224,11.472c0.185,1.727,1.645,3.011,3.344,3.011c0.121,0,0.238-0.008,0.361-0.02
		c1.849-0.196,3.188-1.856,2.989-3.704l-1.146-10.759h6.564c0.562,6.292-0.033,11.616-0.039,11.681
		c-0.217,1.844,1.104,3.517,2.951,3.732c0.135,0.013,0.264,0.021,0.396,0.021c1.685,0,3.139-1.262,3.34-2.975
		c0.062-0.535,0.648-5.886,0.113-12.46h1.525c0.396,3.075,0.52,6.568,0.232,10.558c-0.131,1.854,1.264,3.468,3.119,3.598
		c0.082,0.005,0.162,0.01,0.242,0.01c1.75,0,3.229-1.354,3.354-3.128c0.163-2.261,0.196-4.381,0.142-6.396
		c1.002,5.997,1.399,10.514,1.404,10.573c0.15,1.754,1.621,3.078,3.352,3.078c0.097,0,0.193-0.004,0.291-0.012
		c1.853-0.16,3.226-1.791,3.066-3.643c-0.08-0.929-0.348-3.771-0.896-7.612l5.228,5.578c2.772,7.302,4.717,14.707,5.534,18.581
		c0.337,1.583,1.734,2.67,3.289,2.67c0.232,0,0.468-0.023,0.701-0.073c1.818-0.383,2.981-2.17,2.599-3.988
		c-0.052-0.242-0.336-1.563-0.843-3.593c3.582,7.779,5.099,15.287,5.632,21.478c-0.858,3.366-1.565,7.343-1.831,11.793
		c-0.014,0.265-0.021,0.535-0.033,0.802c-0.025,0.559-0.047,1.122-0.059,1.695c-0.006,0.328-0.008,0.662-0.01,0.994
		c-0.002,0.565,0.006,1.144,0.021,1.724c0.007,0.303,0.011,0.6,0.023,0.902c0.033,0.887,0.08,1.781,0.154,2.695
		c0.074,0.904,0.141,1.789,0.2,2.673c0.017,0.25,0.033,0.495,0.049,0.745c0.042,0.65,0.081,1.295,0.117,1.93
		c0.015,0.249,0.028,0.495,0.042,0.74c0.041,0.773,0.076,1.543,0.107,2.294c0.004,0.062,0.007,0.127,0.009,0.188
		c0.034,0.824,0.062,1.633,0.086,2.428c0.007,0.211,0.01,0.418,0.017,0.625c0.016,0.586,0.029,1.164,0.04,1.73
		c0.005,0.234,0.007,0.466,0.013,0.697c0.01,0.591,0.014,1.174,0.019,1.742c0.003,0.154,0.004,0.312,0.005,0.465
		c0,0.027,0,0.062,0,0.091c2.959-1.974,6.816-4.229,10.109-5.081c6.359-1.648,6.058,10.436,6.058,10.436
		c0.742,5.612-0.049,10.385-1.723,14.231l1.188,16.392c0.129,1.771,1.604,3.127,3.354,3.127c0.079,0,0.163-0.006,0.245-0.011
		c1.854-0.138,3.25-1.748,3.115-3.603l-0.756-10.428c0.463,0.233,0.975,0.381,1.525,0.381c0.042,0,0.086-0.002,0.13-0.002
		c1.856-0.073,3.306-1.637,3.235-3.493l-1.569-41.235c1.562,3.525,2.538,5.162,2.633,5.318c0.632,1.042,1.738,1.615,2.874,1.615
		c0.594,0,1.194-0.156,1.739-0.484C218.461,162.077,218.973,160.014,218.02,158.42z M57.023,219.279
		c-1.025,1.551-0.602,3.64,0.95,4.664c0.571,0.38,1.216,0.56,1.854,0.56c1.092,0,2.164-0.53,2.811-1.511l3.525-5.327
		c-1.603-2.089-2.904-4.188-3.948-6.235L57.023,219.279z M197.861,198.011c-1.588,2.621-3.615,4.671-5.811,6.095l2.932,17.584
		c0.272,1.65,1.699,2.813,3.315,2.813c0.183,0,0.37-0.015,0.558-0.048c1.834-0.303,3.072-2.039,2.767-3.872L197.861,198.011z
		 M188.165,205.941c-1.519,0.457-2.938,0.379-4.243-0.017c0.906,6.413,1.078,12.591,1.001,17.269l-4.327-13.592
		c-1.125,2.513-2.625,5.144-4.596,7.758l3.852,12.103c0.455,1.435,1.779,2.349,3.207,2.349c0.338,0,0.681-0.054,1.021-0.16
		c0.143-0.047,0.273-0.115,0.406-0.178c-0.004,0.036-0.008,0.078-0.01,0.086c-0.207,1.848,1.123,3.513,2.969,3.722
		c0.128,0.014,0.256,0.022,0.381,0.022c1.691,0,3.146-1.271,3.342-2.988c0.102-0.896,1.439-13.445-0.562-27.377
		C189.799,205.35,188.982,205.693,188.165,205.941z"/>
	<g>
		<path fill="#215863" d="M113.36,146.068l-1.627-4.186c-19.188,2.562-33.228-3.186-33.228-3.186s-11.504,9.78-8.368,25.142
			c0,0,2.351-30.411,39.854-10.721L113.36,146.068z"/>
		<path fill="#215863" d="M132.369,155.844c25.863-24.138,43.265,5.958,43.265,5.958c-1.724-14.422-11.756-23.671-11.756-23.671
			s-14.735,7.523-34.228,3.927l-3.868-0.835l-1.994,3.66L132.369,155.844z"/>
	</g>
</g>
</svg>
