<?xml version="1.0" encoding="utf-8"?>
<!-- Generator: Adobe Illustrator 16.0.0, SVG Export Plug-In . SVG Version: 6.00 Build 0)  -->
<!DOCTYPE svg PUBLIC "-//W3C//DTD SVG 1.1//EN" "http://www.w3.org/Graphics/SVG/1.1/DTD/svg11.dtd">
<svg version="1.1" id="Camada_1" xmlns="http://www.w3.org/2000/svg" xmlns:xlink="http://www.w3.org/1999/xlink" x="0px" y="0px"
	 width="256px" height="306px" viewBox="0 0 256 306" enable-background="new 0 0 256 306" xml:space="preserve">
<rect fill="#F4D809" width="256" height="306"/>
<g>
	<g>
		<path fill="#ED823A" d="M183.214,129.058c-0.019-0.064-0.038-0.121-0.055-0.186c-0.103-0.379-0.207-0.785-0.31-1.213
			c-0.017-0.076-0.037-0.156-0.058-0.24c-0.101-0.439-0.208-0.9-0.306-1.383c-0.014-0.045-0.021-0.092-0.03-0.139
			c-0.103-0.492-0.206-1-0.304-1.527c-0.008-0.033-0.014-0.066-0.021-0.104c-0.104-0.535-0.206-1.092-0.305-1.658
			c-0.011-0.074-0.022-0.143-0.035-0.213c-0.099-0.568-0.194-1.146-0.291-1.732c-0.007-0.047-0.015-0.094-0.021-0.137
			c-0.201-1.248-0.393-2.521-0.571-3.783c-0.128-0.131-0.257-0.268-0.384-0.393c-0.854-7.592-2.955-16.699-3.891-20.537
			c-0.061-0.131-0.123-0.262-0.186-0.396c-0.07-0.15-0.139-0.299-0.215-0.451l0,0c-0.049-0.109-0.109-0.219-0.16-0.326
			c-0.238,1.648-0.813,5.91-0.813,8.492c0,3.248-1.026,3.76-2.054,3.588c-1.021-0.17-0.855-3.418-0.855-3.418
			c-0.166-6.84-9.057-12.311-9.057-12.311c-0.857,2.221,1.877,10.086,2.732,11.797c0.855,1.709,2.908,3.762,1.884,4.959
			c-1.027,1.197-1.711,0.854-4.275-2.566c-2.565-3.418-6.669-15.215-6.669-15.215s1.027,5.297,0.512,8.719
			c-0.512,3.42-2.731,7.865-4.445,8.035c-1.711,0.172-1.366-1.709-1.366-1.709s3.763-3.418,3.42-9.404
			c-0.34-5.982-7.008-9.744-7.008-9.744s1.021,3.25,1.537,6.668c0.508,3.418-1.369,8.719-3.419,8.719
			c-2.055,0-0.686-1.367-0.856-5.643c-0.172-4.273-4.96-10.26-4.96-10.26c-3.589,4.619,0.516,16.246,1.538,17.611
			c1.026,1.367,3.422,4.445,1.713,5.131c-1.713,0.682-4.444-1.197-5.813-7.525c-1.367-6.324-5.131-14.873-5.131-14.873
			c2.223,6.154,2.051,15.73,2.051,17.781c0,2.051-0.51,5.129-2.393,5.129c-1.882,0-1.709-2.051-1.709-2.051
			s0.512-2.225,0.168-12.311c-0.341-10.086-10.54-16.927-10.54-16.927c9.346,10.941,4.332,31.232,4.332,31.232
			s-1.369,2.053-3.193,1.371c-1.824-0.686-1.371-2.281-1.371-2.281c5.018-18.465-5.925-31.232-5.925-31.232
			s-3.987,0.227-4.331,9.802c-0.104,2.947-1.025,3.42-2.221,3.42c-1.198,0-1.539-2.227-1.539-2.227c-1.197-4.273,0-10.597,0-10.597
			c-5.133,5.982-0.857,15.044-0.342,15.9c0.511,0.854,2.393,3.248,1.193,5.301c-1.193,2.049-2.049,1.027-2.049,1.027
			c-2.737-2.225-5.988-10.26-5.988-10.26c-0.168,5.471,3.423,11.627,5.475,15.9c2.052,4.275,1.025,7.352-3.249,2.051
			c-4.275-5.299-6.839-16.242-6.839-16.242c-2.223,2.908,1.025,12.311,2.393,15.219c1.37,2.904,1.881,6.494-1.028,4.443
			c-2.903-2.051-4.956-11.627-4.956-11.627s-0.512,6.328,0.684,9.061c1.196,2.738,2.053,5.814,4.105,8.895
			c2.052,3.076,0.167,5.469-2.568,3.59c-1.211-0.834-2.422-2.508-3.399-4.111l-0.494,1.066c-0.361,3.078-0.762,5.869-1.184,7.932
			l-2.027-1.203c-0.119,0.635-0.235,1.246-0.355,1.834c-0.007,0.027-0.011,0.041-0.015,0.068c-0.115,0.568-0.236,1.117-0.354,1.635
			c-0.012,0.037-0.021,0.07-0.032,0.107c-0.113,0.506-0.236,0.986-0.353,1.43c-0.01,0.035-0.02,0.061-0.029,0.092
			c-0.123,0.445-0.243,0.861-0.373,1.234c-0.141,0.408-0.257,0.812-0.367,1.219c-0.085,0.32-0.154,0.643-0.224,0.961
			c-0.013,0.084-0.036,0.16-0.05,0.242c-0.08,0.387-0.141,0.783-0.194,1.176c0,0.002,0,0.01-0.003,0.012
			c-0.053,0.398-0.094,0.791-0.125,1.193l0,0c-0.373,4.992,1.021,9.855,2.1,14.719c1.418,6.408-0.849,27.973,11.066,41.088
			c11.398,12.543,20.998,20.793,37.453,21.238c16.451-0.445,26.057-8.695,37.453-21.238c11.92-13.115,9.645-34.68,11.064-41.088
			c1.42-6.414,3.406-12.82,1.139-19.521C183.436,129.814,183.32,129.443,183.214,129.058z"/>
	</g>
	<path fill="#168536" d="M241.684,211.279c-10.687-10.688-15.199-30.641-16.93-41.369c0.658,0.68,1.268,1.33,1.819,1.926
		c0.146,1.17,0.631,1.406,1.151,1.279c0.703,0.811,1.166,1.414,1.228,1.656c0.344,1.369,4.104,6.5,4.444,10.258
		c0.345,3.762,5.129,6.498,3.42-2.391c-0.703-3.654-3.832-9.162-7.278-14.38c0.28-4.899,0.666-14.014,0.438-23.922
		c-0.194-8.564-3.403-15.943-6.056-20.635c1.11,0.891,2.237,1.66,3.372,2.27c0.219,0.115,0.445,0.176,0.676,0.203
		c1.61,1.684,3.319,3.984,3.717,6.193c0.686,3.762,4.104,6.84,3.765-0.344c-0.345-7.18-12.312-14.703-12.312-14.703
		s-0.011,0.035-0.029,0.086c-2.039-2.162-4.027-4.742-5.916-7.529c-0.32-2.598-0.476-6.18-0.598-10.303
		c3.78,2.201,7.266,4.104,8.598,5.436c2.048,2.053,3.76,1.709,4.785,0.342c1.024-1.365-2.737-5.133-10.26-7.865
		c-1.012-0.365-2.101-0.939-3.229-1.654c-0.057-2.104-0.117-4.301-0.192-6.551c-0.175-5.291-2.805-10.482-5.452-14.324
		c-9.669-15.438-25.557-19.845-34.488-21.091c-9.765-6.437-18.879-5.281-18.879-5.281c-3.631-4.869-5.093-3.303-9.571-4.444
		c0,0,5.815,0,11.628,2.396c4.051,1.668,7.867,0.34,7.867,0.34s2.049-0.683,0-2.053c-2.053-1.364-19.495-7.181-33.348-5.297
		c-1.423,0.179-2.746,0.43-3.933,0.705c-1.188-0.275-2.512-0.526-3.933-0.705c-1.048-0.604-5.755-3.11-12.614-3.795
		c-7.026-0.703-17.742,0.45-28.89,9.926c-0.865,0.732-0.968,2.026-0.233,2.893c0.405,0.477,0.979,0.721,1.561,0.721
		c0.473,0,0.943-0.159,1.326-0.486c10.861-9.229,21.084-9.916,28.012-8.716c-4.475,1.14-8.955,3.646-12.582,8.517
		c0,0-9.117-1.155-18.879,5.281c-9.636,1.342-27.361,6.354-36.645,24.921c-0.506,1.016-0.096,2.244,0.918,2.752
		c0.295,0.148,0.607,0.221,0.918,0.221c0.75,0,1.477-0.416,1.836-1.137c6.518-13.04,17.664-18.732,26.45-21.219
		c-1.007,1.074-2.007,2.247-2.981,3.542c0,0-17.438,9.919-22.912,30.78l-1.26,3.984c-5.14,9.873-12.112,20.848-19.199,24.639
		c-0.997,0.535-1.377,1.779-0.843,2.777c0.372,0.689,1.081,1.086,1.813,1.086c0.323,0,0.657-0.078,0.966-0.242
		c3.536-1.893,6.981-5.256,10.196-9.316c-0.1,0.293-0.25,0.752-0.439,1.363c-5.898,8.258-15.131,23.932-15.855,41.965
		c-0.042,1.133,0.839,2.09,1.971,2.135c0.026,0,0.057,0,0.086,0c1.092,0,2.004-0.867,2.047-1.971
		c0.423-10.543,4.063-20.385,8.104-28.205c-1.164,5.594-2.084,11.898-1.951,17.525c0.119,4.921-0.006,8.903-0.217,12.036
		c-0.254,0.312-0.42,0.703-0.456,1.138c-0.026,0.332-2.87,33.629-17.872,48.637c-0.801,0.801-0.801,2.1,0,2.9
		c0.398,0.399,0.93,0.604,1.449,0.604c0.529,0,1.051-0.203,1.449-0.604c8.398-8.396,13.188-21.589,15.869-32.49
		c0.19,4.293-0.109,9.119-1.656,13.178c-2.352,4.174-15.322,28.166-15.322,50.35c0,1.135,0.926,2.051,2.057,2.051
		c1.129,0,2.047-0.916,2.047-2.051c0-13.727,5.447-28.584,9.8-38.275c0.37-0.604,0.751-1.196,1.146-1.731
		c0,0-3.076,10.601-5.129,20.517l0.178,0.223c-1.023,6.775-1.501,16.766,2.432,24.633c0.361,0.719,1.085,1.135,1.842,1.135
		c0.305,0,0.618-0.072,0.913-0.219c1.013-0.506,1.423-1.738,0.917-2.75c-4.068-8.141-2.646-19.439-1.475-25.334
		c0.784-3.727,2.132-8.275,4.425-12.049c0,0-2.396,16.752,1.368,29.066l0.438,0.805c1.055,4.08,2.695,9.125,5.236,14.44
		c3.975,8.312,12.378,13.625,12.731,13.854c0.341,0.207,0.714,0.309,1.084,0.309c0.683,0,1.353-0.344,1.743-0.963
		c0.6-0.961,0.309-2.227-0.648-2.826c-0.068-0.043-5.936-3.77-9.717-9.516l-0.607-7.898l0.686-5.811l1.367-2.395l0.683,7.518
		c0,0-0.343,4.105,2.054,2.059c2.389-2.059,2.049-3.766,2.049-3.766l1.367-9.574l0.65,2.857c0.202,4.117-0.089,8.904-1.576,13.623
		c-0.344,1.082,0.258,2.233,1.34,2.576c0.203,0.062,0.412,0.098,0.613,0.098c0.875,0,1.68-0.562,1.958-1.439
		c2.155-6.832,2.083-13.678,1.462-18.85c-0.003-5.082-0.344-9.463-0.344-9.463s1.713,7.865,5.133,12.307
		c3.416,4.449,6.496,10.602,6.496,10.602l0.121-0.041c2.057,3.662,4.539,7.09,7.469,9.494c0.383,0.314,0.844,0.465,1.3,0.465
		c0.595,0,1.183-0.254,1.589-0.75c0.721-0.871,0.593-2.17-0.285-2.885c-4.59-3.771-8.059-10.742-10.356-16.643
		c0.652-0.09,1.747-0.039,2.217,1.125c0.683,1.713,2.391,5.475,2.391,5.475s2.396,0.682,3.079-0.346
		c0.683-1.023,0.683-2.391,0.683-2.391l-0.341-4.789c0,0,1.709,0,2.395,3.078c0.684,3.078,5.13,5.813,5.13,5.813
		s-0.258-0.655-0.633-1.69c1.032,1.557,2.225,3.062,3.604,4.485c0.402,0.416,0.94,0.627,1.475,0.627c0.516,0,1.027-0.196,1.426-0.58
		c0.814-0.786,0.835-2.086,0.047-2.897c-9.82-10.146-9.012-25.99-8.998-26.152c0.02-0.432-0.091-0.842-0.297-1.186
		c-0.024-0.82-0.043-1.33-0.043-1.33l1.022-5.812c0,0,2.054,6.154,2.054,8.891c0,2.734,0,2.734,0,2.734l3.023-1.004
		c0.049,1.104,0.079,2.217,0.055,3.355c-0.024,1.135,0.875,2.07,2.008,2.092c0.016,0,0.029,0,0.043,0
		c1.116,0,2.028-0.887,2.051-2.004c0.247-11.781-3.512-21.73-5.913-26.846c-1.128-2.82-1.903-3.67-1.903-3.67l3.028-9.539
		l0.038-0.183c-0.1-0.313-0.17-0.635-0.258-0.944c-7.211-12.935-5.695-29.73-6.918-35.267c-1.42-6.414-3.404-12.82-1.137-19.521
		c0.525-1.553,1.037-3.828,1.511-6.4l2.027,1.203c0.422-2.062,0.822-4.854,1.184-7.932l0.494-1.066
		c0.978,1.604,2.188,3.277,3.399,4.111c2.735,1.879,4.62-0.514,2.568-3.59c-2.053-3.08-2.909-6.156-4.105-8.895
		c-1.195-2.732-0.684-9.061-0.684-9.061s2.053,9.576,4.956,11.627c2.909,2.051,2.398-1.539,1.028-4.443
		c-1.367-2.908-4.615-12.311-2.393-15.219c0,0,2.563,10.943,6.839,16.242c4.274,5.301,5.301,2.225,3.249-2.051
		c-2.052-4.273-5.643-10.43-5.475-15.9c0,0,3.251,8.035,5.988,10.26c0,0,0.855,1.021,2.049-1.027
		c1.199-2.053-0.683-4.447-1.193-5.301c-0.516-0.855-4.791-9.918,0.342-15.9c0,0-1.197,6.324,0,10.597c0,0,0.341,2.227,1.539,2.227
		c1.195,0,2.116-0.473,2.221-3.42c0.344-9.576,4.331-9.802,4.331-9.802s10.942,12.767,5.925,31.232c0,0-0.453,1.596,1.371,2.281
		c1.824,0.682,3.193-1.371,3.193-1.371s5.014-20.291-4.332-31.232c0,0,10.2,6.841,10.54,16.927
		c0.344,10.086-0.168,12.311-0.168,12.311s-0.172,2.051,1.709,2.051c1.883,0,2.393-3.078,2.393-5.129
		c0-2.051,0.172-11.627-2.051-17.781c0,0,3.764,8.549,5.131,14.873c1.369,6.328,4.102,8.207,5.814,7.525
		c1.709-0.686-0.687-3.764-1.714-5.131c-1.022-1.365-5.127-12.992-1.538-17.611c0,0,4.788,5.986,4.961,10.26
		c0.172,4.275-1.197,5.643,0.855,5.643c2.05,0,3.927-5.301,3.419-8.719c-0.517-3.418-1.537-6.668-1.537-6.668
		s6.668,3.762,7.008,9.744c0.343,5.986-3.42,9.404-3.42,9.404s-0.344,1.881,1.366,1.709c1.714-0.17,3.936-4.615,4.445-8.035
		c0.517-3.422-0.512-8.719-0.512-8.719s4.104,11.797,6.67,15.215c2.563,3.42,3.248,3.764,4.274,2.566
		c1.024-1.197-1.026-3.25-1.884-4.959c-0.855-1.711-3.592-9.576-2.732-11.797c0,0,8.891,5.471,9.057,12.311
		c0,0-0.166,3.248,0.855,3.418c1.026,0.172,2.055-0.34,2.055-3.588c0-2.582,0.574-6.844,0.812-8.492l0,0
		c0.029-0.201,0.051-0.363,0.066-0.482c0.006-0.02,0.006-0.039,0.012-0.057c0.014-0.092,0.023-0.145,0.023-0.145
		s0.021,0.369,0.059,1.01c0.143,0.283,0.271,0.559,0.396,0.83c0.936,3.826,3.041,12.953,3.895,20.555
		c0.126,0.125,0.255,0.262,0.383,0.393c0.732,5.174,1.658,10.52,2.635,13.398c2.268,6.701,0.281,13.107-1.138,19.521
		c-1.298,5.874,0.487,24.442-8.353,37.594c-0.881,2.408-2.093,4.726-3.759,6.865l0.472,1.474c0,0-0.775,0.85-1.908,3.67
		c-0.146,0.313-0.301,0.653-0.459,1.01c-0.119,0.055-0.235,0.111-0.32,0.143c-0.836,0.338-1.426,2.977-2.334,6.891
		c-0.682,2.183-1.309,4.601-1.803,7.213c-0.715,2.56-1.594,5.308-2.702,8.123c-4.444,11.289-8.548,13.679-8.548,13.679l0.051,0.01
		c-1.492,1.101-2.463,1.976-2.102,3.41c0.682,2.737,5.147,0.328,8.547-2.394c0.388-0.262,0.77-0.555,1.149-0.867
		c-0.065,1.814-0.122,3.787-0.122,5.314c0,3.762,4.104,2.051,4.442-5.475c0.071-1.553,0.351-3.367,0.739-5.271
		c4.56-6.018,7.808-13.191,7.808-13.191s-0.022,0.511-0.043,1.33c-0.209,0.345-0.319,0.754-0.299,1.187
		c0.009,0.131,0.521,10.271-4.274,19.513c-1.248,1.909-2.724,4.102-4.08,5.94c-0.211,0.229-0.423,0.467-0.644,0.698
		c-0.212,0.214-0.354,0.466-0.448,0.729c-0.546,0.687-1.053,1.289-1.49,1.722c-3.076,3.076-4.104,9.918-1.371,10.944
		c2.739,1.025,3.42-0.344,4.104-4.448c0.332-1.97,0.986-4.015,1.98-5.949c0.059-0.047,0.119-0.09,0.172-0.146
		c1.379-1.424,2.572-2.93,3.604-4.485c-0.375,1.035-0.63,1.69-0.63,1.69s4.448-2.735,5.13-5.813
		c0.684-3.078,2.395-3.078,2.395-3.078l-0.344,4.789c0,0,0,1.367,0.684,2.391c0.687,1.027,3.078,0.346,3.078,0.346
		s1.711-3.762,2.396-5.475c0.465-1.164,1.562-1.215,2.215-1.125c-2.297,5.9-5.764,12.871-10.354,16.643
		c-0.879,0.715-1.008,2.014-0.283,2.885c0.406,0.496,0.994,0.75,1.583,0.75c0.46,0,0.922-0.149,1.3-0.465
		c2.742-2.252,5.086-5.396,7.062-8.787c-0.068,0.828-0.123,1.633-0.146,2.41c-0.343,10.607-0.343,10.607,2.734,10.607
		c3.076,0,1.025-3.424,1.025-7.523c0-2.219,0.899-8.717,1.829-14.551c0.513-0.758,1.043-1.508,1.584-2.211
		c3.421-4.441,5.13-12.307,5.13-12.307s-0.336,4.381-0.341,9.463c-0.593,4.924-0.664,11.367,1.194,17.875
		c-1.838,1.311-3.967,2.197-4.61,2.408c-1.026,0.342,0.685,3.422,3.078,3.08c2.394-0.344,8.207-5.129,9.574-10.26
		c0.649-2.429,1.141-5.462,1.483-7.996l1.248,2.186l0.685,5.811l-0.613,7.898c-3.778,5.746-9.642,9.473-9.711,9.516
		c-0.958,0.6-1.251,1.865-0.647,2.826c0.387,0.619,1.059,0.963,1.739,0.963c0.374,0,0.748-0.102,1.085-0.309
		c0.354-0.229,8.76-5.543,12.729-13.854c0.1-0.214,0.19-0.423,0.291-0.632c0.237,3.177,0.385,6.213,0.262,7.955
		c-0.34,4.787,1.705,4.103,3.076,3.763c1.366-0.345,3.075-1.031,1.366-8.552c-0.643-2.823-1.043-7.291-1.295-11.762
		c0.619-1.854,1.123-3.609,1.535-5.216l0.438-0.805c0.528-1.733,0.935-3.549,1.242-5.397c1.528,4.246,2.782,7.618,3.211,8.475
		c0.274,0.552,0.651,1.337,1.075,2.263c-0.336,1.026-0.731,2.021-1.207,2.979c-0.508,1.012-0.098,2.244,0.916,2.75
		c0.296,0.146,0.608,0.219,0.916,0.219c0.648,0,1.26-0.322,1.652-0.865c1.187,2.703,2.309,5.363,2.801,6.674
		c1.025,2.738,1.709,2.738,3.078,0.688c1.017-1.522-1.361-6.631-4.056-11.819c2.106-6.994,1.642-14.818,0.793-20.443l0.181-0.223
		c-2.053-9.916-5.129-20.517-5.129-20.517c0.396,0.535,0.775,1.127,1.146,1.731c4.353,9.691,9.799,24.55,9.799,38.275
		c0,1.135,0.914,2.051,2.048,2.051c1.135,0,2.055-0.916,2.055-2.051c0-22.184-12.97-46.176-15.318-50.35
		c-1.545-4.059-1.846-8.885-1.658-13.178c2.684,10.901,7.471,24.094,15.869,32.49c0.398,0.399,0.923,0.604,1.451,0.604
		c0.521,0,1.049-0.203,1.449-0.604C242.484,213.379,242.484,212.08,241.684,211.279z M200.841,249.096
		c-0.614-3.354-0.728-6.631-0.585-9.572l0.648-2.856l2.664,1.631C202.962,241.092,201.805,246.197,200.841,249.096z
		 M225.167,223.412c0.821,4.113,1.754,10.859,0.862,17.318c-1.357-2.781-3.051-8.347-4.604-14.086
		c0.309-8.277-0.686-15.281-0.686-15.281C223.036,215.137,224.382,219.686,225.167,223.412z"/>
	<path fill="#168536" d="M135.131,154.617c-5.244,0-8.159,2.625-12.821,5.828c-4.664,3.203-8.449-0.582-12.236,0
		c-3.789,0.586-5.539,4.373-4.955,6.703c0.581,2.328,3.786,2.041,10.196,2.621c6.411,0.582,11.657-1.459,15.151-5.535
		c1.876-2.191,3.499-2.783,4.599-2.865l0.781,0.004c1.102,0.104,2.694,0.723,4.531,2.861c3.495,4.076,8.741,6.117,15.15,5.535
		c6.41-0.58,9.615-0.293,10.197-2.621c0.582-2.33-1.166-6.117-4.955-6.703c-3.787-0.582-7.571,3.203-12.237,0
		c-4.66-3.203-7.572-5.828-12.816-5.828H135.131z"/>
</g>
</svg>
