<?xml version="1.0" encoding="utf-8"?>
<!-- Generator: Adobe Illustrator 16.0.0, SVG Export Plug-In . SVG Version: 6.00 Build 0)  -->
<!DOCTYPE svg PUBLIC "-//W3C//DTD SVG 1.1//EN" "http://www.w3.org/Graphics/SVG/1.1/DTD/svg11.dtd">
<svg version="1.1" id="Camada_1" xmlns="http://www.w3.org/2000/svg" xmlns:xlink="http://www.w3.org/1999/xlink" x="0px" y="0px"
	 width="256px" height="306px" viewBox="0 0 256 306" enable-background="new 0 0 256 306" xml:space="preserve">
<rect fill="#F4D809" width="256" height="306"/>
<g>
	<g>
		<path fill="#ED823A" d="M170.189,132.901c-0.006-0.004-0.017-0.006-0.021-0.01c-0.687,0.456-1.508,0.72-2.394,0.72
			c-2.383,0-4.313-1.931-4.313-4.31c0-1.002,0.358-1.917,0.933-2.648c-0.265-0.552-0.558-1.115-0.902-1.659
			c-0.969-1.555-1.99-1.346-3.131-0.526c-0.508,0.759-1.225,1.364-2.062,1.745c-0.37,0.317-0.758,0.634-1.157,0.923
			c0.051,0.209,0.086,0.429,0.086,0.659c0,1.549-1.258,2.806-2.81,2.806c-1.545,0-2.806-1.257-2.806-2.806
			c0-0.148,0.021-0.289,0.044-0.429c-1.709-1.876,0.323-5.868-3.041-6.987c-4.104-1.37-4.962,2.562-4.962,2.562
			s-0.01,2.285-1.715,4.022c-0.5,0.796-1.278,1.394-2.203,1.677c-0.143,2.023-1.811,3.623-3.873,3.623
			c-2.147,0-3.895-1.747-3.895-3.898c0-1.305,0.646-2.452,1.633-3.159c0.023-0.786,0.221-1.701,0.648-2.778
			c0,0,2.053-5.474-0.686-6.325c-2.732-0.857-4.955-0.171-5.301,3.76c-0.221,2.595,0.359,6.224-0.637,8.346
			c-0.016,0.042-0.033,0.079-0.054,0.117c-0.038,0.081-0.079,0.159-0.129,0.232c-0.257,0.484-0.61,0.903-1.044,1.234
			c-0.286,1.812-1.844,3.196-3.734,3.196c-1.327,0-2.49-0.685-3.165-1.711c-1.229-0.586-2.084-1.824-2.084-3.271
			c0-0.736,0.221-1.418,0.598-1.991c0.005-0.646,0.169-1.38,0.502-2.22c1.712-4.272,0.002-9.578-2.562-8.55
			c-2.102,0.842,0.26,7.744-0.496,11.16c0.114,0.413,0.192,0.838,0.192,1.283c0,1.792-0.974,3.343-2.414,4.19
			c-0.812,0.685-1.849,1.109-2.989,1.109c-2.586,0-4.676-2.092-4.676-4.677c0-0.427,0.074-0.834,0.181-1.233
			c-1.646-2.826-3.743-4.471-5.257-4.103c-0.27,2.459-1.199,4.538-2.483,5.727c-0.026,0.096-0.052,0.188-0.079,0.282
			c0.54,0.613,0.88,1.411,0.88,2.293c0,1.922-1.56,3.481-3.48,3.481c-1.7,0-3.107-1.215-3.415-2.822
			c-0.547-0.688-1.117-1.728-1.524-3.313c-0.21-0.824-0.551-1.064-0.981-0.977c-0.245,2.58-2.395,4.617-5.043,4.617
			c-0.705,0-1.37-0.143-1.979-0.396c-1.459,7.798-13.363,83.803,44.338,87.93c2.539,0.181,5.343,0,5.343,0
			c51.998-6.034,47.125-67.623,44.854-84.391c-0.483,0.113-0.991,0.183-1.514,0.183
			C173.264,135.589,171.359,134.529,170.189,132.901z"/>
	</g>
	<g>
		<path fill="#168536" d="M150.637,175.132c-0.883,0.288-1.482,0.622-1.871,0.987c-0.416-2.764-3.176-2.598-3.848-2.346
			c-0.723,0.271-1.725,2-2.178,0.634c-0.455-1.357-1.906-1.903-2.996-0.994c-1.088,0.903-2.949,0.483-4.082-0.365
			c-0.441-0.332-0.906-0.517-1.359-0.582c-1.492,0.909-3.104,1.116-4.33,1.116h-0.332c-1.162,0-2.675-0.184-4.097-0.975
			c-0.283,0.103-0.562,0.232-0.835,0.439c-1.135,0.85-2.995,1.27-4.086,0.365c-1.089-0.909-2.539-0.363-2.993,0.994
			c-0.454,1.365-1.45-0.361-2.178-0.633c-0.673-0.252-3.426-0.42-3.845,2.345c-0.394-0.365-0.988-0.699-1.876-0.987
			c-3.356-1.086-8.984-0.179-8.984,7.262c0,7.441,0.906,8.808,1.996,8.625c1.09-0.178,1.906-3.994,4.448-3.09
			c2.54,0.913,6.037-0.104,5.423-3.546l-1.066-0.989c0,0-0.9-0.931-0.653-2.291c0.232-0.463,0.9-1.379,2.358-0.654
			c1.881,0.947,2.895,0.015,3.958-0.241c1.416-0.208,2.758-0.144,3.825,0.644c1.44-0.131,2.897,0.01,4.25,0.637
			c0,0,0.438,0.143,1.022,0.312c0.401-0.333,0.773-0.831,1.014-1.598l0.82-2.084c0,0,0.646-1.896,2.057-1.827h0.23
			c1.411-0.067,2.055,1.827,2.055,1.827l0.82,2.084c0.229,0.734,0.586,1.227,0.971,1.555c0.504-0.146,0.869-0.27,0.869-0.27
			c1.338-0.623,2.774-0.768,4.196-0.639c1.07-0.783,2.406-0.85,3.816-0.642c1.065,0.256,2.075,1.188,3.956,0.241
			c1.464-0.725,2.132,0.19,2.361,0.654c0.248,1.36-0.654,2.291-0.654,2.291l-1.063,0.989c-0.614,3.44,2.879,4.459,5.42,3.546
			c2.543-0.904,3.359,2.912,4.447,3.09c1.092,0.183,1.998-1.185,1.998-8.625C159.622,174.953,153.994,174.046,150.637,175.132z"/>
	</g>
	<path fill="#168536" d="M218.328,123.527c0.113,2.787,1.855,3.736,3.852,3.549c0.973,0.989,2.295,1.606,3.754,1.606
		c2.986,0,5.396-2.539,5.396-5.672c0-3.133-2.41-5.67-5.396-5.67c-0.293,0-0.58,0.042-0.863,0.092
		c-1.321-0.88-2.569-1.384-2.569-1.384s-2.694-0.769-1.228-6.698c1.474-5.932-0.735-9.284-4.666-10.057
		c-3.922-0.774-6.375-0.519-4.903-6.706c1.394-5.849,2.996-10.325-1.406-14.714c1.099-1.428,1.781-3.219,1.877-5.17
		c2.207-0.188,3.945-2.108,3.945-4.475c0-2.493-1.92-4.51-4.293-4.51c-1.188,0-2.265,0.504-3.041,1.319
		c-1.438-1.151-3.229-1.836-5.179-1.836c-2.188,0-4.184,0.865-5.698,2.283c-0.384-3.175-2.955-5.634-6.08-5.634
		c-0.779,0-1.517,0.156-2.203,0.435c-1.17-2.547-3.642-4.302-6.513-4.302c-0.27,0-0.526,0.02-0.791,0.047l-0.063-0.051
		c0,0-6.629-5.41,1.718-7.985c0.811-0.252,1.498-0.518,2.08-0.792c2.928-0.065,5.282-2.568,5.282-5.653
		c0-3.137-2.42-5.674-5.399-5.674c-2.15,0-3.986,1.322-4.857,3.234c-2.35-0.142-4.424,0.883-4.961,3.979
		c-0.49,2.837-1.473,3.352-1.473,3.352c-2.699-3.865-9.076-2.831-9.076-2.831s2.209-7.992-4.668-9.795
		c-6.869-1.807-9.32,4.381-9.32,4.381c-4.908-6.703-11.289-1.034-11.289-1.034c-5.4-2.833-9.078-0.256-9.078-0.256
		c-6.033-4.367-13.106-0.415-15.133,0.896c-0.679-3.312-3.479-5.793-6.835-5.793c-3.862,0-6.992,3.287-6.992,7.346
		c0,1.202,0.277,2.334,0.768,3.337c-0.036,0.16-0.082,0.317-0.113,0.484c-1.188,0.784-3.219,1.598-5.273,0.085
		c-0.792-1.941-2.567-3.31-4.662-3.474c-0.507-1.666-1.973-2.881-3.725-2.881c-2.17,0-3.927,1.845-3.927,4.123
		c0,1.463,0.728,2.74,1.819,3.473c-0.061,0.339-0.101,0.685-0.101,1.04c0,0.867,0.191,1.684,0.516,2.424
		c-0.364,0.884-1.011,1.57-2.234,1.828c-1.657,0.354-4.308-0.343-6.99-0.792c-1.101-0.951-2.515-1.528-4.053-1.528
		c-0.58,0-1.142,0.089-1.677,0.24c-0.772-0.467-1.657-0.753-2.616-0.753c-2.919,0-5.274,2.483-5.274,5.543
		c0,2.702,1.848,4.949,4.288,5.438c0.143,0.217,0.297,0.423,0.457,0.621c-3.423,0.017-6.255,2.614-6.839,6.041
		C57.973,65.3,54.4,69.48,54.4,74.545c0,2.407,0.805,4.615,2.15,6.351c-0.494-0.107-1.012-0.163-1.536-0.163
		c-1.327,0-2.578,0.346-3.68,0.949c-0.657,0.254-1.173,0.611-1.602,1.026c-0.431-0.111-0.882-0.173-1.343-0.173
		c-3.186,0-5.768,2.714-5.768,6.061c0,3.345,2.582,6.057,5.768,6.057c0.213,0,0.422-0.012,0.632-0.033
		c0.195,0.238,0.407,0.468,0.633,0.683c-0.369,2.193-2.778,3.004-6.893,3.942c-0.932,0.213-1.738,0.574-2.461,1.013
		c-1.501,0.762-2.825,1.848-3.877,3.182c-0.562-0.183-1.158-0.281-1.776-0.281c-1.535,0-2.931,0.609-3.991,1.602
		c-0.262-0.031-0.524-0.054-0.797-0.054c-3.655,0-6.624,3.117-6.624,6.967c0,3.839,2.969,6.958,6.624,6.958
		c1.109,0,2.15-0.29,3.066-0.796c0.512,1.348,1.322,2.532,2.347,3.472c-0.343,0.391-0.749,0.788-1.24,1.189
		c-0.913,0.736-1.923,1.153-2.891,1.562c-3.042,0.177-5.453,2.812-5.453,6.045c0,2.178,1.101,4.084,2.745,5.15
		c2.605,2.237,7.729-0.187,9.036-0.386c1.715-0.258,6.625,4.644-1.229,6.188c-3.162,0.623-5.117,1.669-6.355,2.96
		c-1.743,0.748-2.968,2.549-2.968,4.643c0,0.995,0.283,1.908,0.751,2.687c0.102,1.542,1.17,2.103,2.444,2.036
		c0.499,0.188,1.031,0.306,1.589,0.306c2.644,0,4.786-2.25,4.786-5.027c0-0.279-0.035-0.56-0.083-0.831
		c1.74-1.733,4.171-2.734,6.705-0.07c3.931,4.128-2.94,9.025-2.94,9.025s-4.656,0.647-6.088,4.646
		c-2.291,0.706-3.973,2.902-3.973,5.536c0,3.202,2.471,5.8,5.522,5.8c0.299,0,0.586-0.045,0.878-0.093
		c0.166,0.3,0.325,0.588,0.482,0.868c-1.485,1.066-2.468,2.863-2.468,4.896c0,0.369,0.041,0.722,0.104,1.072
		c-2.37,1.062-4.033,3.531-4.033,6.401c0,3.411,2.338,6.241,5.416,6.842c0,0.125-0.017,0.252-0.017,0.381
		c0,2.308,0.763,4.419,2.033,6.093c-2.074,1.067-3.504,3.306-3.504,5.896l0,0c-1.729,0.757-2.944,2.547-2.944,4.641
		c0,2.776,2.141,5.021,4.786,5.021c0.806,0,1.551-0.227,2.219-0.598c-0.387,0.804-0.629,1.701-0.629,2.662
		c0,2.172,1.131,4.055,2.786,5.084c-0.206,0.631-0.327,1.305-0.327,2.008c0,1.541,0.552,2.947,1.457,4.02
		c-1.173,0.85-2.029,2.158-2.327,3.678c-1.138,2.813,0.601,5.883,4.062,8.156c0,0-2.703,5.411-0.496,8.766
		c1.553,2.359,2.389,5.225,4.369,6.715c0.069,0.074,0.144,0.129,0.213,0.192c-0.26,0.646-0.403,1.363-0.403,2.11
		c0,2.99,2.303,5.419,5.152,5.419c2.844,0,5.147-2.429,5.147-5.419c0-1.725-0.782-3.238-1.977-4.229
		c0.045-0.156,0.083-0.307,0.106-0.464c0.094-0.396,0.156-0.804,0.156-1.229c0-1.796-0.868-3.371-2.188-4.294
		c-1.488-3.209-1.637-7.016,1.023-7.719c0.987,0.737,2.188,1.18,3.493,1.18c3.32,0,6.015-2.831,6.015-6.315
		c0-1.344-0.401-2.589-1.084-3.608c1.459-2.092,3.898-2.776,4.766,0.129c0.97,3.263,1.796,6.671,5.483,7.707
		c0.71,1.242,1.993,2.089,3.472,2.089c1.862,0,3.422-1.334,3.888-3.138c2.37-1.793,3.022-5.019,3.108-7.612
		c0.342,1.196,1.033,2.237,1.943,2.997c-0.072,1.164-0.294,6.391,1.608,8.943c-0.975,0.965-1.592,2.32-1.592,3.836
		c0,2.92,2.255,5.285,5.03,5.285c2.779,0,5.031-2.365,5.031-5.285c0-1.879-0.94-3.519-2.349-4.455
		c1.546-2.873,0.387-7.789,0.387-7.789c0.57-1.209,0.841-2.313,0.914-3.328c0.201-0.615,0.314-1.272,0.314-1.959
		c0-1.93-0.869-3.646-2.205-4.756c1.906-1.225,3.186-3.422,3.186-5.942c0-3.233-2.113-5.929-4.961-6.71
		c1.787-1.51,3.126-3.51,3.835-5.799c-20.602-23.555-13.695-67.419-12.603-73.243c0.608,0.254,1.273,0.396,1.979,0.396
		c2.648,0,4.798-2.037,5.043-4.617c0.431-0.088,0.771,0.152,0.981,0.977c0.407,1.586,0.978,2.626,1.524,3.313
		c0.308,1.607,1.715,2.822,3.415,2.822c1.921,0,3.48-1.56,3.48-3.481c0-0.882-0.34-1.68-0.88-2.293
		c0.027-0.094,0.053-0.187,0.079-0.282c1.284-1.188,2.214-3.268,2.483-5.727c1.514-0.368,3.61,1.276,5.257,4.103
		c-0.106,0.399-0.181,0.807-0.181,1.233c0,2.585,2.09,4.677,4.676,4.677c1.141,0,2.178-0.425,2.989-1.109
		c1.44-0.848,2.414-2.398,2.414-4.19c0-0.445-0.078-0.87-0.192-1.283c0.756-3.416-1.605-10.318,0.496-11.16
		c2.564-1.028,4.274,4.277,2.562,8.55c-0.333,0.84-0.497,1.574-0.502,2.22c-0.377,0.573-0.598,1.255-0.598,1.991
		c0,1.447,0.855,2.686,2.084,3.271c0.675,1.026,1.838,1.711,3.165,1.711c1.891,0,3.448-1.384,3.734-3.196
		c0.434-0.331,0.787-0.75,1.044-1.234c0.05-0.073,0.091-0.151,0.129-0.232c0.021-0.038,0.038-0.075,0.054-0.117
		c0.996-2.122,0.416-5.751,0.637-8.346c0.347-3.931,2.568-4.617,5.302-3.76c2.737,0.852,0.686,6.325,0.686,6.325
		c-0.428,1.077-0.625,1.992-0.648,2.778c-0.986,0.707-1.633,1.854-1.633,3.159c0,2.151,1.746,3.898,3.895,3.898
		c2.062,0,3.73-1.6,3.873-3.623c0.925-0.283,1.703-0.881,2.203-1.677c1.705-1.737,1.715-4.022,1.715-4.022s0.855-3.933,4.961-2.562
		c3.365,1.119,1.332,5.111,3.041,6.987c-0.021,0.14-0.043,0.28-0.043,0.429c0,1.549,1.261,2.806,2.806,2.806
		c1.551,0,2.81-1.257,2.81-2.806c0-0.23-0.035-0.45-0.086-0.659c0.399-0.289,0.786-0.605,1.157-0.923
		c0.836-0.381,1.554-0.986,2.062-1.745c1.141-0.819,2.162-1.028,3.131,0.526c0.346,0.544,0.639,1.107,0.902,1.659
		c-0.572,0.731-0.933,1.646-0.933,2.648c0,2.379,1.933,4.31,4.313,4.31c0.885,0,1.707-0.264,2.394-0.72
		c0.004,0.004,0.015,0.006,0.021,0.01c1.17,1.628,3.073,2.688,5.225,2.688c0.521,0,1.029-0.069,1.514-0.183
		c1.725,12.713,4.936,51.177-16.27,71.672c0.6,1.135,1.397,2.146,2.365,2.972c0.01,0.095,0.008,0.192,0.018,0.279
		c-0.727,1.265-1.154,2.739-1.154,4.328c0,3.833,2.457,7.06,5.801,8.052c-1.162,1.35-1.875,3.137-1.875,5.094
		c0,1.549,0.439,2.979,1.191,4.176c-2.439,1.186-4.137,3.771-4.137,6.779c0,3.746,2.625,6.833,6.039,7.385
		c-1.688,1.633-4.66,5.328-3.582,10.404c0,0-2.328,0.973-3.465,2.979c-0.748,1.084-1.199,2.414-1.199,3.854
		c0,3.63,2.801,6.573,6.258,6.573c2.004,0,3.781-0.993,4.928-2.531c1.268-1.525,2.1-4.223,0.695-6.915
		c-0.129-0.278-0.271-0.548-0.438-0.81c-0.396-0.924-1.771-4.82,2.543-5.725c4.912-1.031,3.436,3.349,2.453,6.442
		c-0.22,0.69-0.193,1.558,0.008,2.457c-0.709,1.019-1.131,2.258-1.131,3.601c0,3.489,2.829,6.315,6.315,6.315
		c3.483,0,6.315-2.826,6.315-6.315c0-0.943-0.213-1.83-0.58-2.632c-0.188-1.104-0.914-2.282-2.338-3.426
		c0,0,3.924-4.384-2.211-6.958c0,0,1.56-2.307,1.56-4.907c0.055,0,0.104,0.007,0.159,0.007c2.802,0,5.32-1.235,7.107-3.214
		c0.963,0.864,2.203,1.406,3.566,1.406c3.051,0,5.523-2.597,5.523-5.799c0-1.539-0.576-2.925-1.509-3.959
		c3.209-1.625,5.437-5.063,5.437-9.062c0-2.584-0.937-4.933-2.465-6.716c1.03-1.036,1.793-2.36,2.176-3.851
		c0.865,2.119,2.863,3.604,5.193,3.604c3.12,0,5.646-2.652,5.646-5.928c0-1.822-0.804-3.436-2.033-4.52
		c-1.067-2.588-2.358-5.156-2.14-6.565c0.029-0.177,0.078-0.327,0.14-0.467c0.627,0.133,1.278,0.213,1.946,0.213
		c5.218,0,9.447-4.445,9.447-9.925c0-2.498-0.881-4.771-2.326-6.514c2.267-1.322,3.798-3.854,3.798-6.768
		c0-2.208-0.886-4.201-2.298-5.605c1.687-1.238,2.793-3.283,2.793-5.606c0-3.771-2.911-6.835-6.51-6.835
		c-0.621,0-1.223,0.102-1.793,0.273c0.506-0.863,1.279-1.818,2.217-2.885c0.228,0.021,0.455,0.036,0.688,0.036
		c3.793,0,6.867-3.229,6.867-7.218c0-2.677-1.386-4.999-3.438-6.25c0-0.021,0.004-0.044,0.004-0.069c0-3.913-3.021-7.087-6.75-7.087
		c-0.482,0-0.951,0.054-1.404,0.156c0.48-0.794,0.775-1.719,0.775-2.718c0-0.792-0.188-1.542-0.5-2.211
		c1.631-1.676,2.639-3.963,2.639-6.485c0-2.727-1.18-5.17-3.053-6.875c0.151-0.397,0.242-0.832,0.242-1.282
		c0-2.033-1.642-3.677-3.679-3.677c-0.158,0-0.313,0.027-0.467,0.046c-0.113-0.223-0.229-0.453-0.318-0.671
		c-1.963-4.638,2.209-6.704,5.396-4.9C219.314,112.443,218.086,117.6,218.328,123.527z"/>
</g>
</svg>
