<?xml version="1.0" encoding="utf-8"?>
<!-- Generator: Adobe Illustrator 16.0.0, SVG Export Plug-In . SVG Version: 6.00 Build 0)  -->
<!DOCTYPE svg PUBLIC "-//W3C//DTD SVG 1.1//EN" "http://www.w3.org/Graphics/SVG/1.1/DTD/svg11.dtd">
<svg version="1.1" id="Camada_1" xmlns="http://www.w3.org/2000/svg" xmlns:xlink="http://www.w3.org/1999/xlink" x="0px" y="0px"
	 width="256px" height="306px" viewBox="0 0 256 306" enable-background="new 0 0 256 306" xml:space="preserve">
<rect fill="#A77DB5" width="256" height="306"/>
<g>
	<path fill="#215863" d="M26.98,247.477c-0.663,0-1.307-0.324-1.693-0.92c-1.816-2.828-2.172-5.188-1.057-7.008
		c2.247-3.66,9.361-2.943,15.078-2.363c1.081,0.111,2.057,0.211,2.844,0.258c1.316,0.066,1.648-0.178,1.649-0.182
		c0.239-0.43,0.159-2.195-3.228-8.967c-1.523-3.045-0.916-5.186-0.139-6.441c2.754-4.459,11.556-4.826,20.34-4.826
		c2.183,0,3.636-0.366,4.197-1.062c0.891-1.098,0.295-3.928-0.338-6.924c-0.162-0.762-0.326-1.549-0.48-2.353
		c-1.749-9.194,7.06-11.598,13.492-13.35c3.997-1.094,5.262-12.775,4.879-20.725c-0.053-1.107,0.805-2.049,1.914-2.1
		c1.121-0.058,2.047,0.801,2.098,1.907c0.18,3.734,0.652,22.476-7.832,24.789c-8.607,2.343-11.502,4.017-10.604,8.729
		c0.147,0.773,0.308,1.531,0.464,2.269c0.836,3.959,1.623,7.697-0.473,10.289c-1.391,1.707-3.783,2.539-7.316,2.539
		c-4.136,0-15.116,0-16.924,2.924c-0.131,0.211-0.527,0.854,0.313,2.539c3.302,6.599,4.665,10.422,2.977,12.985
		c-0.955,1.447-2.72,2.115-5.224,1.962c-0.833-0.046-1.871-0.154-3.016-0.269c-2.551-0.258-10.318-1.045-11.247,0.469
		c-0.101,0.16-0.116,0.978,1.009,2.734c0.602,0.932,0.33,2.172-0.604,2.775C27.728,247.373,27.351,247.477,26.98,247.477z"/>
	<path fill="#215863" d="M229.357,241.682c-0.314,0.062-0.648,0.053-0.977-0.047c-9.535-2.875-9.965-5.471-7.568-14.469
		c0.774-2.893-0.18-3.949-0.496-4.295c-1.44-1.592-5.067-2.18-9.243-1.498c-4.781,0.783-8.439,0.055-10.568-2.104
		c-1.837-1.859-2.455-4.588-1.829-8.107c0.54-3.057,0.133-5.342-1.212-6.799c-1.899-2.062-5.985-2.85-11.821-2.299
		c-14.681,1.396-18.52-19.193-18.672-20.07c-0.195-1.078,0.514-2.104,1.574-2.322c0.018,0,0.032-0.002,0.048-0.008
		c1.091-0.195,2.136,0.533,2.331,1.625c0.031,0.176,3.336,17.824,14.34,16.777c7.33-0.697,12.286,0.471,15.151,3.572
		c2.239,2.43,2.985,5.87,2.213,10.225c-0.382,2.164-0.133,3.705,0.733,4.582c1.16,1.182,3.668,1.521,7.062,0.965
		c2.12-0.346,9.308-1.17,12.869,2.764c1.247,1.377,2.506,3.889,1.399,8.027c-2.004,7.525-2.004,7.525,4.847,9.588
		c1.063,0.322,1.666,1.438,1.342,2.502C230.66,241.021,230.059,241.539,229.357,241.682z"/>
	<path fill="#215863" d="M202.57,268.104c-0.161,0-0.324-0.021-0.485-0.062c-3.771-0.935-7.358-3.877-9.588-7.875
		c-1.858-3.328-2.416-6.84-1.524-9.631c0.616-1.937,0.869-5.418-4.072-13.295l-0.666-1.054c-4.487-7.121-4.521-7.856-0.68-15.705
		l0.805-1.655c1.531-3.154,2.037-5.257,1.507-6.236c-0.869-1.614-5.524-2.35-10.627-3.021c-13.288-1.75-13.163-21.637-13.151-22.486
		c0.018-1.105,0.928-2.041,2.034-1.975c1.108,0.012,1.994,0.924,1.983,2.029c-0.002,0.172-0.101,17.166,9.656,18.446
		c7.081,0.935,11.855,1.791,13.639,5.097c1.562,2.899,0.158,6.635-1.424,9.896l-0.816,1.67c-1.564,3.198-2.428,4.967-2.377,6.178
		c0.048,1.183,1.043,2.761,2.848,5.623l0.669,1.063c4.499,7.164,5.886,12.3,4.503,16.642c-0.55,1.718-0.099,4.131,1.199,6.461
		c1.678,2.996,4.377,5.271,7.051,5.935c1.078,0.264,1.732,1.354,1.467,2.434C204.29,267.488,203.471,268.104,202.57,268.104z"/>
	<path fill="#215863" d="M64.842,262.502c-0.42,0.045-0.854-0.039-1.24-0.266c-0.955-0.564-1.271-1.801-0.705-2.754
		c1.099-1.855,1.163-1.969-1.094-8.494l-0.279-0.805c-2.732-7.916,4.025-12.896,10.559-17.713c0.588-0.435,1.181-0.867,1.766-1.308
		c1.424-1.07,3.373-2.524,3.605-3.248c0.153-0.476-0.383-1.785-1.066-3.44c-0.591-1.443-1.331-3.234-2.145-5.66
		c-3.213-9.558,2.828-12.226,8.155-14.578c1.735-0.771,3.53-1.564,5.204-2.604c4.467-2.771,1.754-16.688-0.259-22.993
		c-0.335-1.058,0.245-2.187,1.302-2.525c1.054-0.336,2.184,0.248,2.521,1.303c0.73,2.283,6.895,22.459-1.447,27.631
		c-1.914,1.188-3.926,2.072-5.699,2.857c-5.502,2.436-8.018,3.547-5.971,9.629c0.774,2.301,1.482,4.029,2.051,5.414
		c2.389,5.805,1.955,7.088-3.842,11.43c-0.6,0.447-1.196,0.889-1.792,1.326c-6.77,4.988-10.831,8.293-9.147,13.17l0.277,0.805
		c2.26,6.529,2.867,8.283,0.754,11.852C66.016,262.094,65.449,262.438,64.842,262.502z"/>
	<path fill="#215863" d="M75.07,274.375c-0.662-0.127-1.244-0.586-1.501-1.266c-0.392-1.033,0.133-2.191,1.167-2.584
		c3.369-1.275,9.097-4.32,10.125-7.062c0.219-0.584,0.188-1.062-0.102-1.602l-0.164-0.312c-3.164-5.902-5.655-10.561,2.029-15.404
		c4.809-3.028,3.941-15.522-0.012-24.25c-4.219-9.315-2.727-15.438,4.841-19.85c4.468-2.607,8.391-13.574,9.524-17.586
		c0.305-1.062,1.405-1.691,2.479-1.385c1.069,0.301,1.688,1.412,1.385,2.479c-0.46,1.636-4.712,16.078-11.367,19.96
		c-4.82,2.811-7.04,6.254-3.204,14.725c4.189,9.246,5.996,24.58-1.507,29.307c-4.38,2.76-3.903,3.996-0.63,10.105l0.168,0.313
		c0.832,1.556,0.941,3.254,0.316,4.91c-2.002,5.328-11.398,9.006-12.461,9.408C75.796,274.42,75.42,274.445,75.07,274.375z"/>
	<path fill="#215863" d="M173.957,271.768c-0.323-0.069-0.63-0.215-0.898-0.44c-0.844-0.72-0.942-1.988-0.223-2.832
		c2.119-2.479,2.25-3.552,2.209-3.897c-0.083-0.634-1.188-1.429-2.361-2.263c-1.619-1.158-3.636-2.599-5.061-4.976
		c-4.223-7.063-2.456-10.188,3.396-20.551c2.49-4.408,3.412-7.449,2.826-9.301c-0.468-1.467-1.979-2.662-5.388-4.266
		c-7.966-3.75-7.106-16.318-7.063-16.848c0.084-1.107,1.049-1.935,2.153-1.853c1.104,0.08,1.937,1.047,1.851,2.149
		c-0.207,2.873,0.238,10.779,4.771,12.916c3.793,1.783,6.522,3.603,7.502,6.681c0.987,3.098,0.043,6.834-3.153,12.494
		c-5.832,10.319-6.375,11.616-3.449,16.518c0.992,1.658,2.496,2.726,3.947,3.765c1.827,1.303,3.717,2.653,4.01,5.039
		c0.248,2.012-0.721,4.168-3.135,7C175.396,271.678,174.648,271.908,173.957,271.768z"/>
	<path fill="#41B9BF" d="M197.518,142.824c-4.539-8.122-14.338-0.477-14.338-0.477l-0.174,1.047l-1.123-24.94
		c0,0-1.21-16.563-4.826-19.115c-3.619-2.548-7.234-2.548-7.844-8.282c-0.604-5.734-2.711-6.051-5.424-4.458
		c-2.716,1.59-6.939,2.865-9.048-0.957c-2.111-3.824-7.845-6.054-10.255-1.912c-2.409,4.143-4.312,0.201-7.234,2.551
		c-6.154,4.938-12.06-2.229-15.078,0c-3.016,2.229-4.822,1.592-7.235-2.551c-2.415-4.142-8.144-1.912-10.256,1.912
		c-2.11,3.822-6.332,2.547-9.048,0.957c-2.713-1.593-4.82-1.276-5.427,4.458c-0.603,5.734-4.22,5.734-7.839,8.282
		c-3.618,2.552-4.825,19.115-4.825,19.115l-1.197,26.533l-0.44-2.64c0,0-9.799-7.646-14.336,0.477
		c-4.539,8.123-0.718,37.273,9.318,40.854c7.845,2.807,10.135-2.268,10.761-4.619c1.284,4.377,2.571,10.303,3.096,17.527
		c1.192,16.484,6.931,22.936,9.796,28.189c2.867,5.26,10.273,12.904,10.273,12.904s7.166,6.928,15.057,6.928h19.349
		c7.887,0,15.053-6.928,15.053-6.928s7.406-7.646,10.272-12.904c2.865-5.254,8.603-11.705,9.797-28.189
		c0.523-7.225,1.812-13.15,3.093-17.527c0.627,2.353,2.918,7.424,10.762,4.621C198.232,180.098,202.057,150.947,197.518,142.824z"/>
	<path fill="#215863" d="M161.199,227.404l-1.194-23.894c0,0,0.955-5.495-5.976-8.362c-6.93-2.867-18.633-4.781-18.633-4.781H123.93
		c0,0-11.707,1.914-18.636,4.781c-6.933,2.867-5.976,8.362-5.976,8.362l-1.192,23.894c0,0-0.122,0.832-0.315,2.191
		c3.206,4.157,7.004,8.084,7.004,8.084s7.166,6.928,15.057,6.928h19.349c7.887,0,15.053-6.928,15.053-6.928s4.227-4.365,7.528-8.771
		C161.419,227.955,161.199,227.404,161.199,227.404z M156.658,217.607c0,0-0.721,8.562-6.688,12.903
		c-2.63,1.91-9.32,2.863-19.351,2.863h-1.91c-10.036,0-16.729-0.953-19.354-2.863c-5.967-4.342-6.69-12.903-6.69-12.903v-10.033
		c0-3.346,1.434-6.932,7.644-9.32c6.214-2.389,17.681-3.582,17.681-3.582h3.343c0,0,11.467,1.193,17.68,3.582
		s7.646,5.975,7.646,9.32L156.658,217.607L156.658,217.607z"/>
	<path fill="#215863" d="M133.484,32.441c2.57,1.842,1.912,2.866,7.687,0.635c4.729-1.823,7.237,1.277,9.949,4.142
		c2.716,2.867,5.127,2.867,6.938,0.956c1.809-1.911,9.953,2.549,10.551,5.098c0.604,2.548,3.016,7.327,7.539,5.096
		c4.524-2.23,7.845,4.142,7.543,8.282c-0.301,4.143,0.302,7.967,7.236,11.152c6.936,3.182,0,9.557,2.711,13.698
		c2.719,4.141-3.615,14.655-3.615,14.655l-3.619,44.278l-3.315,4.777l-1.205-26.758c0,0-1.21-16.563-4.827-19.115
		c-3.617-2.548-7.233-2.548-7.843-8.282c-0.604-5.734-2.711-6.051-5.424-4.458c-2.716,1.59-6.938,2.865-9.048-0.957
		c-2.111-3.824-7.846-6.054-10.254-1.912c-2.41,4.143-4.312,0.201-7.235,2.551c-6.155,4.938-12.06-2.229-15.078,0
		c-3.016,2.229-4.822,1.592-7.235-2.551c-2.415-4.142-8.144-1.912-10.256,1.912c-2.11,3.822-6.332,2.547-9.048,0.957
		c-2.713-1.593-4.82-1.276-5.427,4.458c-0.603,5.734-4.22,5.734-7.839,8.282c-3.618,2.552-4.825,19.115-4.825,19.115l-1.206,26.758
		l-3.317-4.777L69.4,96.156c0,0-6.332-10.515-3.615-14.655c2.713-4.142-4.223-10.516,2.713-13.698
		c6.933-3.185,7.536-7.01,7.238-11.152c-0.306-4.141,3.015-10.513,7.537-8.282c4.521,2.231,6.935-2.548,7.541-5.096
		c0.603-2.549,8.743-7.009,10.551-5.098c1.811,1.912,4.223,1.912,6.939-0.956c2.713-2.865,7.54-8.6,9.949-4.142
		c2.414,4.461,3.018,3.187,6.033,2.231C124.287,35.307,126.382,27.343,133.484,32.441z"/>
</g>
</svg>
