<?xml version="1.0" encoding="utf-8"?>
<!-- Generator: Adobe Illustrator 16.0.0, SVG Export Plug-In . SVG Version: 6.00 Build 0)  -->
<!DOCTYPE svg PUBLIC "-//W3C//DTD SVG 1.1//EN" "http://www.w3.org/Graphics/SVG/1.1/DTD/svg11.dtd">
<svg version="1.1" id="Camada_1" xmlns="http://www.w3.org/2000/svg" xmlns:xlink="http://www.w3.org/1999/xlink" x="0px" y="0px"
	 width="256px" height="306px" viewBox="0 0 256 306" enable-background="new 0 0 256 306" xml:space="preserve">
<rect fill="#A77DB5" width="256" height="306"/>
<g>
	<g>
		<path fill="#41B9BF" d="M179.084,162.152l-4.092-20.473l0.574-1.572c5.093-7.271,2.096-18.721,2.096-18.721l-8.868-36.242
			c-0.457-0.406-0.743-0.666-0.743-0.666s-2.135-9.254-16.853-14.24c-14.72-4.985-26.821,0.953-26.821,0.953
			C95.42,67.389,89.728,83.532,89.728,83.532l-0.134,0.081l-9.241,37.773c0,0-3.001,11.449,2.093,18.721l0.576,1.572l-4.094,20.473
			c0,0-4.27,13.522,8.188,20.467l15.129,7.123l0.722,0.293l1.77,2.908c0,0,4.631,8.725,14.6,9.256h19.349
			c9.961-0.531,14.592-9.256,14.592-9.256l1.771-2.908l0.722-0.293l15.127-7.123C183.357,175.676,179.084,162.152,179.084,162.152z"
			/>
	</g>
	<path fill="none" d="M82.445,140.107c0.731,1.043,1.622,1.994,2.713,2.816c0,0,8.189,7.121,8.541,12.459"/>
	<line fill="none" x1="97.265" y1="180.664" x2="102.966" y2="190.035"/>
	<path fill="none" d="M175.627,140.107c-0.729,1.043-1.624,1.994-2.714,2.816c0,0-8.185,7.121-8.544,12.459"/>
	<line fill="none" x1="160.807" y1="180.664" x2="155.104" y2="190.035"/>
	<path fill="#215863" d="M212.43,220.475c0,0,6.174,14.717,19.227,14.955c0,0-13.29-9.971-14.238-28.957
		c-0.952-18.986,2.133-24.918-6.171-35.363c0,0,11.629,2.613,13.052,17.324c0,0,4.04-13.051-5.225-24.442
		c-9.254-11.396-14.711-15.667-15.424-25.633c0,0,6.408,12.103,15.191,14.951c0,0-11.156-13.053-13.294-30.618
		c-2.134-17.562-15.424-33.704-15.424-33.704s19.226,7.6,22.306,22.313c0,0-0.947-14.002-14.471-25.634
		c0,0,11.623,2.373,18.029,9.97c0,0-8.779-16.139-20.408-23.496c-11.631-7.358-19.462-9.258-19.462-9.258s9.495-4.75,20.413,0.475
		c0,0-28.006-34.419-66.459-17.329c0,0-30.615-19.696-66.928,14.241c0,0,8.545-7.122,23.496-9.257c0,0-24.92,9.732-42.719,40.823
		c0,0,11.151-14.711,24.205-20.645c0,0-20.886,21.36-26.814,45.807c0,0,4.98-13.057,15.422-21.128c0,0-8.78,10.921-16.133,43.198
		c-7.362,32.278-23.264,33.229-23.264,33.229s16.852-0.238,25.396-23.735c0,0,0.237,18.752-11.157,30.856
		c-11.39,12.104-17.8,20.645-14.002,40.582c0,0,0.477-22.307,13.526-32.275c0,0-9.968,13.053-5.692,26.58
		c4.271,13.529-9.732,26.582-9.732,26.582s13.768-5.695,17.562-18.512c0,0,0.715,9.256-3.322,20.887
		c-4.035,11.629-12.103,17.564-12.103,17.564s14.712-7.836,20.171-23.973c5.458-16.14,3.327-29.195,3.327-29.195
		s8.069,7.594,3.079,25.635c-4.981,18.037-0.47,31.568-0.47,31.568s1.183-21.6,7.589-32.043c0,0-8.067,25.633,9.261,32.512
		c0,0-11.632-20.646,2.612-34.648c0,0-1.9,10.445,6.407,17.799c0,0-3.799-14.948,4.034-26.344
		c7.832-11.389,8.544-18.988,8.544-18.988s4.511,14.955-1.424,27.533c0,0,10.205-10.44,8.782-25.633
		c-0.931-9.904-2.458-18.27-3.411-22.908c-11.461-7.063-7.389-19.988-7.389-19.988l4.094-20.472l-0.576-1.572
		c-5.094-7.271-2.093-18.721-2.093-18.721l9.241-37.773l0.134-0.081c0,0,0.049-0.14,0.156-0.376
		c1.059,8.689,6.132,14.021,6.132,14.021c-1.478-10.189,0.479-17.736,3.271-23.092c2.468-1.244,5.521-2.302,9.294-2.911
		c-7.35,10.634-3.662,22.086-3.662,22.086c-0.129-11.299,6.556-18.415,12.878-22.609c2.052,0.062,4.229,0.23,6.58,0.54
		c0,0,5.251-2.552,13.011-2.892c5.156,5.727,10.674,14.435,9.895,24.961c0,0,4.953-11.806-2.164-24.513
		c1.962,0.313,3.988,0.783,6.08,1.49c0.32,0.11,0.608,0.236,0.924,0.346c4.355,6.479,8.084,15.459,7.621,26.947
		c0,0,4.011-10.33,0.037-23.13c7.024,4.751,8.271,10.077,8.271,10.077s0.286,0.26,0.743,0.666l8.868,36.242
		c0,0,2.996,11.449-2.096,18.721l-0.574,1.572l4.092,20.473c0,0,3.521,11.141-5.145,18.387l0.756,1.49c0,0,3.322,20.17-7.121,25.393
		c0,0,11.393-1.664,14.479-11.629c0,0,2.612,9.02-4.747,17.328c-7.358,8.307-7.358,29.902-7.358,29.902s0.477-15.9,10.918-24.92
		c0,0-6.879,21.36,3.562,34.174c0,0-5.223-13.049,1.661-24.205c0,0,13.766,26.818,0,36.076c0,0,13.766-4.271,10.68-26.82
		c0,0,9.733,9.02,8.312,26.82c0,0,8.777-12.344,1.656-31.33c0,0,6.645,16.854,22.783,15.662
		C229.52,248.48,211.482,242.551,212.43,220.475z"/>
</g>
</svg>
