<?xml version="1.0" encoding="utf-8"?>
<!-- Generator: Adobe Illustrator 16.0.0, SVG Export Plug-In . SVG Version: 6.00 Build 0)  -->
<!DOCTYPE svg PUBLIC "-//W3C//DTD SVG 1.1//EN" "http://www.w3.org/Graphics/SVG/1.1/DTD/svg11.dtd">
<svg version="1.1" id="Camada_1" xmlns="http://www.w3.org/2000/svg" xmlns:xlink="http://www.w3.org/1999/xlink" x="0px" y="0px"
	 width="256px" height="306px" viewBox="0 0 256 306" enable-background="new 0 0 256 306" xml:space="preserve">
<rect y="0" fill="#ED823A" width="256" height="306"/>
<g>
	<path fill="#F4D809" d="M200.879,181.229c0,0,0.303-12.084-6.057-10.437c-3.295,0.854-7.151,3.107-10.11,5.081
		c-0.021-4.771-0.207-10.312-0.702-16.351c-1.588-19.375,6.352-32.711,6.352-32.711L157.016,91.24h-76.54l-28.901,35.572
		c0,0,7.939,13.337,6.352,32.711c-0.487,5.947-0.674,11.416-0.701,16.141c-2.914-1.922-6.619-4.047-9.795-4.871
		c-6.356-1.647-6.055,10.437-6.055,10.437c-1.817,13.729,5.449,22.518,12.713,24.715c2.076,0.627,3.977,0.269,5.635-0.562
		c2.486,7.795,8.281,17.754,21.705,24.974c0,0,13.021,10.16,31.442,10.16h16.193c18.422,0,31.442-10.16,31.442-10.16
		c13.505-7.264,19.291-17.302,21.755-25.113c1.721,0.929,3.715,1.365,5.901,0.705C195.43,203.744,202.695,194.958,200.879,181.229z"
		/>
	<path fill="#168536" d="M57.355,216.648c0.756-2.678,1.885-5.813,3.245-8.826c-0.327-0.831-0.626-1.65-0.878-2.443
		c-1.658,0.831-3.559,1.189-5.635,0.562c-1.682-0.51-3.359-1.385-4.93-2.578l-0.885,4.404c-0.366,1.821,0.814,3.598,2.637,3.965
		c0.224,0.045,0.446,0.066,0.668,0.066c0.084,0,0.166-0.021,0.248-0.021c-0.508,1.509-0.83,2.608-0.953,3.049
		c-0.504,1.787,0.539,3.648,2.328,4.15c0.306,0.086,0.611,0.127,0.914,0.127C55.584,219.104,56.937,218.135,57.355,216.648z
		 M37.653,193.141c-1.253,1.377-1.155,3.506,0.219,4.76c0.647,0.586,1.458,0.877,2.269,0.877c0.914,0,1.823-0.367,2.486-1.096
		c0.096-0.104,0.445-0.492,0.979-1.113c-1.137-2.26-1.953-4.877-2.307-7.834C39.176,191.447,37.705,193.084,37.653,193.141z
		 M218.02,158.42c-0.049-0.08-4.354-7.386-9.707-25.818c-0.195-8.586-2.088-18.61-8.01-27.666c1.459-0.845,2.094-2.658,1.402-4.242
		c-0.117-0.271-2.964-6.729-8.7-13.461c-3.522-4.137-7.385-7.471-11.483-9.969c-6.92-5.41-15.967-9.436-28.051-11.197
		c-1.104-1.543-2.309-2.868-3.633-3.87c-3.714-2.813-7.631-3.936-11.658-3.334c-4.826,0.721-8.478,3.833-10.379,5.827h-2.058
		c-2.593-3.268-6.818-4.874-12.623-4.767c-3.606,0.076-7.108,1.767-10.549,5.099c-16.835,0.175-31.919,7.031-44.837,20.413
		c-8.396,8.698-13.84,18.055-16.945,23.967l-8.481,6.852c-1.446,1.168-1.672,3.287-0.502,4.734c0.665,0.822,1.64,1.251,2.62,1.251
		c0.743,0,1.491-0.244,2.114-0.747l2.464-1.991c0.412,0.256,0.879,0.417,1.383,0.475c-6.175,14.612-7.062,27.344-7.101,27.898
		c-0.118,1.854,1.286,3.451,3.14,3.575c0.075,0.006,0.15,0.006,0.223,0.006c1.758,0,3.238-1.364,3.356-3.144
		c0.01-0.118,0.758-10.577,5.472-22.938c-0.033,0.253-0.081,0.515-0.108,0.766c-2.435,22.838-15.972,47.384-16.108,47.628
		c-0.904,1.627-0.32,3.678,1.303,4.577c0.52,0.29,1.081,0.429,1.635,0.429c1.182,0,2.33-0.623,2.944-1.729
		c0.415-0.744,7.475-13.546,12.454-29.581l-0.979,12.043c-6.248,12.933-12.723,23.478-12.835,23.658
		c-0.978,1.584-0.487,3.658,1.095,4.635c0.553,0.343,1.162,0.502,1.768,0.502c1.127,0,2.23-0.565,2.865-1.599
		c0.129-0.209,0.717-1.163,1.625-2.702c0.043-0.899,0.113-1.82,0.24-2.77c0,0-0.302-12.084,6.055-10.438
		c3.176,0.824,6.881,2.949,9.795,4.871c0.027-4.726,0.214-10.189,0.701-16.142c0.061-0.724,0.103-1.429,0.135-2.131
		c0.008-0.184,0.013-0.363,0.021-0.545c0.02-0.551,0.036-1.096,0.042-1.631c0.004-0.154,0.004-0.314,0.006-0.475
		c0.007-1.407-0.03-2.777-0.108-4.101c-0.317-5.271-1.258-9.869-2.328-13.581c-0.188-0.645-0.377-1.259-0.568-1.848
		c-1.726-5.329-3.551-8.402-3.551-8.402L62.5,113.365c5.514-2.363,14.984-7.274,22.447-15.527
		c-2.229,6.312-3.508,10.947-3.591,11.251c-0.491,1.792,0.563,3.646,2.358,4.138c0.297,0.081,0.598,0.12,0.891,0.12
		c1.479,0,2.836-0.982,3.245-2.478c1.675-6.116,4.052-13.071,6.81-19.629h6.406l-3.555,16.438c-0.394,1.815,0.761,3.608,2.578,4.003
		c0.24,0.051,0.48,0.074,0.716,0.074c1.552,0,2.946-1.078,3.286-2.653l3.861-17.862h0.637l-1.257,7.026
		c-0.328,1.832,0.891,3.584,2.72,3.907c0.201,0.036,0.399,0.056,0.598,0.056c1.6,0,3.018-1.146,3.311-2.773l1.471-8.216h1.832
		l-3.169,10.456c-0.54,1.78,0.466,3.659,2.245,4.199c0.324,0.1,0.653,0.146,0.977,0.146c1.445,0,2.781-0.938,3.223-2.391
		l3.761-12.41h3.372l1.224,11.472c0.187,1.728,1.646,3.012,3.346,3.012c0.119,0,0.236-0.009,0.359-0.021
		c1.851-0.196,3.188-1.855,2.989-3.704l-1.146-10.759h6.562c0.562,6.292-0.031,11.616-0.037,11.681
		c-0.219,1.845,1.104,3.518,2.949,3.732c0.137,0.013,0.266,0.021,0.396,0.021c1.686,0,3.14-1.262,3.341-2.975
		c0.062-0.535,0.647-5.886,0.112-12.46h1.524c0.396,3.075,0.521,6.568,0.231,10.558c-0.131,1.854,1.265,3.469,3.119,3.599
		c0.082,0.005,0.162,0.01,0.242,0.01c1.75,0,3.229-1.354,3.354-3.128c0.161-2.261,0.194-4.381,0.142-6.396
		c1.002,5.997,1.399,10.515,1.404,10.573c0.148,1.754,1.621,3.078,3.354,3.078c0.096,0,0.191-0.004,0.291-0.012
		c1.853-0.16,3.226-1.791,3.064-3.644c-0.08-0.929-0.35-3.771-0.896-7.611l5.229,5.578c2.771,7.302,4.717,14.706,5.533,18.58
		c0.338,1.583,1.734,2.671,3.289,2.671c0.231,0,0.469-0.023,0.701-0.073c1.817-0.383,2.98-2.17,2.6-3.988
		c-0.053-0.242-0.336-1.562-0.844-3.593c3.582,7.779,5.1,15.287,5.633,21.478c-0.858,3.366-1.565,7.344-1.831,11.793
		c-0.015,0.266-0.021,0.535-0.033,0.803c-0.024,0.559-0.047,1.122-0.06,1.694c-0.006,0.328-0.008,0.662-0.01,0.994
		c-0.002,0.565,0.006,1.145,0.021,1.725c0.007,0.303,0.011,0.6,0.021,0.901c0.033,0.887,0.08,1.781,0.154,2.695
		c0.074,0.904,0.141,1.789,0.2,2.673c0.017,0.25,0.032,0.495,0.049,0.745c0.042,0.648,0.081,1.295,0.117,1.93
		c0.015,0.249,0.028,0.495,0.042,0.74c0.041,0.771,0.076,1.543,0.107,2.294c0.004,0.062,0.006,0.127,0.008,0.188
		c0.035,0.823,0.062,1.634,0.087,2.429c0.007,0.211,0.01,0.418,0.017,0.625c0.016,0.586,0.029,1.164,0.04,1.729
		c0.005,0.233,0.007,0.467,0.013,0.697c0.01,0.591,0.016,1.174,0.021,1.741c0.003,0.154,0.004,0.312,0.005,0.466
		c0,0.026,0,0.062,0,0.091c2.959-1.975,6.814-4.229,10.107-5.081c6.359-1.646,6.06,10.438,6.06,10.438
		c0.742,5.61-0.049,10.385-1.724,14.229l1.188,16.394c0.13,1.771,1.604,3.127,3.354,3.127c0.08,0,0.164-0.006,0.246-0.013
		c1.854-0.138,3.25-1.747,3.115-3.603l-0.758-10.429c0.465,0.232,0.977,0.381,1.525,0.381c0.042,0,0.086-0.002,0.13-0.002
		c1.854-0.072,3.306-1.637,3.233-3.492l-1.567-41.235c1.562,3.524,2.538,5.162,2.633,5.317c0.632,1.043,1.738,1.615,2.874,1.615
		c0.596,0,1.193-0.155,1.739-0.483C218.461,162.077,218.973,160.014,218.02,158.42z M57.023,219.279
		c-1.025,1.551-0.602,3.64,0.95,4.664c0.571,0.38,1.216,0.56,1.854,0.56c1.092,0,2.164-0.529,2.811-1.511l3.525-5.327
		c-1.603-2.089-2.904-4.188-3.948-6.234L57.023,219.279z M197.861,198.011c-1.588,2.62-3.615,4.671-5.812,6.095l2.934,17.584
		c0.271,1.649,1.699,2.812,3.313,2.812c0.185,0,0.37-0.015,0.56-0.048c1.834-0.303,3.07-2.039,2.767-3.872L197.861,198.011z
		 M188.165,205.941c-1.519,0.457-2.938,0.379-4.243-0.019c0.906,6.413,1.078,12.593,1.001,17.271l-4.327-13.592
		c-1.125,2.513-2.625,5.144-4.596,7.758l3.852,12.103c0.455,1.436,1.779,2.35,3.207,2.35c0.338,0,0.683-0.055,1.021-0.16
		c0.143-0.047,0.273-0.114,0.406-0.178c-0.004,0.035-0.008,0.077-0.01,0.086c-0.207,1.849,1.123,3.514,2.969,3.723
		c0.128,0.014,0.256,0.021,0.381,0.021c1.691,0,3.146-1.271,3.342-2.988c0.102-0.896,1.439-13.444-0.562-27.377
		C189.799,205.35,188.982,205.693,188.165,205.941z"/>
	<g>
		<path fill="#168536" d="M113.36,146.068l-1.627-4.187c-19.188,2.562-33.228-3.186-33.228-3.186s-11.504,9.78-8.368,25.142
			c0,0,2.351-30.41,39.854-10.721L113.36,146.068z"/>
		<path fill="#168536" d="M132.369,155.844c25.863-24.139,43.265,5.958,43.265,5.958c-1.724-14.423-11.756-23.672-11.756-23.672
			s-14.735,7.523-34.228,3.928l-3.868-0.835l-1.994,3.659L132.369,155.844z"/>
	</g>
</g>
</svg>
