<?xml version="1.0" encoding="utf-8"?>
<!-- Generator: Adobe Illustrator 16.0.0, SVG Export Plug-In . SVG Version: 6.00 Build 0)  -->
<!DOCTYPE svg PUBLIC "-//W3C//DTD SVG 1.1//EN" "http://www.w3.org/Graphics/SVG/1.1/DTD/svg11.dtd">
<svg version="1.1" id="Camada_1" xmlns="http://www.w3.org/2000/svg" xmlns:xlink="http://www.w3.org/1999/xlink" x="0px" y="0px"
	 width="256px" height="306px" viewBox="0 0 256 306" enable-background="new 0 0 256 306" xml:space="preserve">
<rect y="0" fill="#ED823A" width="256" height="306"/>
<g>
	<path fill="#F4D809" d="M188.718,133.504c-0.809,0.154-1.591,0.24-2.444,0.24c-5.271,0-9.823-3.043-12.026-7.462
		c-1.542,1.569-3.681,2.56-6.054,2.56c-4.576,0-8.299-3.616-8.483-8.15c-1.155,1.094-2.616,1.865-4.241,2.175
		c-0.41,1.862-1.488,3.467-2.967,4.569c1.771,2.824,4.834,4.751,8.366,4.955c-1.537,0.871-3.312,1.373-5.205,1.373
		c-3.321,0-6.282-1.526-8.228-3.92c-1.646,2.194-4.264,3.622-7.219,3.622c-3.212,0-6.023-1.686-7.623-4.212
		c-1.666-0.506-3.158-1.401-4.386-2.57c0.665,3.438,3.679,6.037,7.31,6.037c0.033,0,0.065-0.005,0.104-0.005
		c-1.344,1.292-3.161,2.096-5.176,2.096c-3.209,0-5.938-2.034-6.99-4.883c-0.369,0.066-0.749,0.105-1.138,0.105
		c-0.886,0-1.728-0.179-2.499-0.49c-0.355,1.172-1.068,2.248-2.125,3.041c-2.62,1.971-6.324,1.454-8.319-1.13
		c1.548,0.251,3.188-0.104,4.541-1.115c1.333-1.001,2.127-2.451,2.333-3.983c-1.414-0.375-2.654-1.18-3.565-2.271
		c-0.397,0.705-0.938,1.347-1.629,1.861c-2.62,1.967-6.324,1.452-8.318-1.134c1.547,0.253,3.188-0.102,4.539-1.111
		c0.904-0.68,1.554-1.565,1.947-2.544c-1.607-1.237-2.925-2.838-3.828-4.679c-0.762,1.603-2.067,2.891-3.679,3.628
		c-0.812,3.278-2.9,6.048-5.702,7.767c-0.271,4.254-2.184,8.057-5.104,10.803c0.168-0.938,0.27-1.899,0.27-2.886
		c0-2.149-0.427-4.2-1.186-6.077c-0.191,0.006-0.381,0.022-0.574,0.022c-1.525,0-2.979-0.282-4.333-0.777
		c-2.466,2.924-7.558,4.785-11.682,4.785c-0.576,0,0.559-0.047,0-0.119v5.442v21.384c-1.75-0.969-3.954-1.508-5.954-1.508
		c-8.427,0-15.259,9.443-15.259,21.088c0,11.646,6.832,21.086,15.259,21.086c2,0,4.204-0.536,5.954-1.503l-0.296,14.595
		c0,0-0.443,19.113,35.543,28.441c4.86,6.423,12.92,10.625,22.044,10.625c0.082,0,0.16-0.006,0.242-0.006
		c0.08,0,0.16,0.006,0.242,0.006c9.127,0,17.188-4.202,22.045-10.625c35.985-9.328,35.543-28.441,35.543-28.441v-14.53
		c1.723,0.926,3.588,1.438,5.543,1.438c8.431,0,15.26-9.438,15.26-21.086c0-11.645-6.829-21.088-15.26-21.088
		c-1.955,0-3.871,0.515-5.592,1.443V141.06L188.718,133.504L188.718,133.504z"/>
	<g>
		<path fill="#168536" d="M154.811,204.873l-9.252-3.598c-4.131-4.985-10.818-4.782-10.818-4.782h-0.029
			c-0.427,1.338-1.665,2.317-3.146,2.317c-1.276,0-2.391-0.723-2.94-1.783l-0.33-0.531c-1.498,0.049-6.881,0.519-10.411,4.779
			l-9.251,3.598c-12.082,2.531-12.473,14.613-12.473,14.613c0,14.636,14.105,13.136,16.793,12.719l-0.018-0.039
			c0.288-0.018,0.457-0.038,0.457-0.038v-6.938c0-3.416,2.965-5.574,4.252-6.351c2.64-1.041,5.104-1.304,5.104-1.304
			c5.463-0.562,7.989-3.031,9.146-5.415c1.159,2.384,3.686,4.854,9.146,5.415c0,0,2.622,0.28,5.355,1.403
			c1.358,0.856,4.084,2.979,4.084,6.248v6.938c0,0,0.018,0.002,0.051,0.011l-0.035,0.066c2.688,0.417,16.793,1.917,16.793-12.719
			C167.282,219.486,166.895,207.404,154.811,204.873z"/>
	</g>
	<g>
		<path fill="#168536" d="M223.587,150.132c0.496,0.111,1.011,0.176,1.537,0.176c3.821,0,6.917-3.094,6.917-6.919
			c0-1.826-0.713-3.488-1.876-4.729c2.007-2.196,3.241-5.114,3.241-8.328c0-6.834-5.539-12.374-12.375-12.374
			c-1.188,0-2.338,0.179-3.426,0.491c0.854-2.231,2.517-8.316-2.322-13.157l-1.949-1.363c0,0,0.779-2.342,4.482-0.584
			c0,0-0.978-11.106-11.496-8.186c0,0,1.359-5.446-2.442-8.386c-0.673-4.947-4.899-8.762-10.03-8.762
			c-0.738,0-1.455,0.082-2.146,0.229c-1.094-1.994-3.213-3.35-5.646-3.35c-1.031,0-2.005,0.249-2.867,0.682
			c-0.646-4.735-3.707-8.693-7.914-10.584l-0.086-0.143c1.467-1.557,2.369-3.646,2.369-5.948c0-4.801-3.891-8.688-8.688-8.688
			c-2.715,0-5.131,1.238-6.725,3.186c-1.619,0.651-3.104,1.571-4.396,2.707c-1.771-3.859-5.656-6.546-10.184-6.546
			c-4.875,0-9.016,3.125-10.556,7.475c-1.883-0.992-3.974-1.649-6.192-1.881c0.015-0.177,0.027-0.351,0.027-0.525
			c0-4.798-3.889-8.688-8.687-8.688c-3.006,0-5.654,1.527-7.214,3.849c-0.729-0.149-1.486-0.229-2.259-0.229
			c-4.524,0-8.412,2.687-10.182,6.546c-2.694-2.368-6.217-3.816-10.088-3.816c-8.417,0-15.24,6.798-15.292,15.204
			c2.31-1.432,4.985-2.328,7.855-2.501c-4.206,1.891-7.271,5.849-7.914,10.584c-0.863-0.433-1.837-0.682-2.868-0.682
			c-2.437,0-4.557,1.354-5.647,3.35c-0.692-0.146-1.41-0.229-2.148-0.229c-5.131,0-9.358,3.813-10.029,8.762
			c-3.802,2.938-2.442,8.386-2.442,8.386c-10.523-2.922-11.497,8.186-11.497,8.186c3.703-1.758,4.48,0.584,4.48,0.584l-1.947,1.363
			c-4.84,4.841-3.177,10.927-2.323,13.157c-1.089-0.312-2.237-0.491-3.426-0.491c-6.835,0-12.374,5.54-12.374,12.374
			c0,3.214,1.233,6.134,3.24,8.328c-1.161,1.239-1.876,2.901-1.876,4.729c0,3.825,3.097,6.919,6.918,6.919
			c0.529,0,1.041-0.063,1.536-0.176c1.062,0.905,2.087,2.354,2.263,4.656c0.09,1.159-0.154,2.082-0.572,2.835
			c-0.418-0.062-0.843-0.105-1.279-0.105c-4.896,0-8.865,3.969-8.865,8.867c0,4.137,2.835,7.6,6.662,8.58
			c0.099,0.061,0.159,0.096,0.159,0.096c-6.432,8.185,3.701,15.978,3.701,15.978c1.363-2.532,5.457,0,5.457,0
			s3.253,3.256,3.298,6.624c-0.105,0.523-0.185,1.05-0.246,1.586c-0.153,0.454-0.383,0.904-0.713,1.343
			c-3.119,4.092-9.939,0-9.939,0c-0.391,3.635,0.025,6.248,0.928,8.137c-2.875,1.021-5.996,3.166-6.97,7.648
			c-1.712,7.872,9.061,9.883,11.7,10.254c-0.077,0.473-0.127,0.953-0.127,1.444c0,3.083,1.557,5.804,3.928,7.419
			c-0.029,0.327-0.073,0.647-0.073,0.981c0,5.82,4.717,10.537,10.536,10.537c3.063,0,5.812-1.312,7.736-3.396
			c4.509,5.277,15.214,5.104,15.214,5.104l-5.643-6.335c1.624-0.806,2.95-2.099,3.815-3.688c2.023,0.94,4.27,1.484,6.646,1.484
			c3.404,0,6.547-1.09,9.127-2.921c-15.795-7.52-19.317-17.034-20.1-21.084c0,0,0,0,0-0.003c-0.209-1.072-0.224-1.761-0.224-1.927
			l-0.008,0.277l0.328-14.906c-1.748,0.967-3.983,1.501-5.979,1.501c-8.427,0-15.259-9.438-15.259-21.086
			c0-0.009,0.001-0.017,0.001-0.022c2.48-0.313,4.644-1.638,6.073-3.546c1.941,2.393,4.904,3.92,8.224,3.92
			c1.895,0,3.667-0.498,5.205-1.371c-3.53-0.201-6.595-2.132-8.365-4.957c1.477-1.103,2.555-2.707,2.967-4.564
			c1.627-0.311,3.084-1.082,4.24-2.174c0.1,2.404,1.2,4.545,2.894,6.031v24.688c0,0-0.115,6.995,3.816,15.998h0.004l8.772-15.397
			c0,0-17.15-26.696-4.094-51.639l8.149-17.042c0.699,1.812,1.101,3.775,1.101,5.837c0,0.985-0.103,1.946-0.27,2.886
			c2.921-2.746,4.833-6.549,5.105-10.803c2.801-1.719,4.889-4.487,5.701-7.767c1.612-0.737,2.918-2.025,3.678-3.628
			c0.903,1.841,2.221,3.44,3.831,4.679c-0.396,0.979-1.047,1.864-1.949,2.544c-1.352,1.011-2.993,1.364-4.539,1.111
			c1.994,2.586,5.697,3.101,8.318,1.134c0.689-0.516,1.233-1.156,1.629-1.861c0.911,1.091,2.15,1.896,3.567,2.271
			c-0.208,1.532-1.003,2.983-2.337,3.984c-1.351,1.012-2.991,1.365-4.539,1.114c1.995,2.584,5.7,3.101,8.319,1.13
			c1.057-0.793,1.77-1.868,2.125-3.041c0.771,0.312,1.614,0.49,2.498,0.49c0.392,0,0.77-0.039,1.139-0.105
			c1.053,2.849,3.781,4.883,6.993,4.883c2.01,0,3.833-0.803,5.175-2.095c-0.035,0-0.066,0.004-0.102,0.004
			c-3.633,0-6.646-2.599-7.311-6.037c1.229,1.169,2.721,2.064,4.381,2.57c1.604,2.526,4.416,4.213,7.629,4.213
			c2.955,0,5.57-1.429,7.217-3.623c1.943,2.394,4.904,3.92,8.226,3.92c1.894,0,3.668-0.502,5.205-1.373
			c-3.532-0.204-6.597-2.131-8.366-4.955c1.479-1.104,2.555-2.707,2.967-4.569c1.627-0.31,3.084-1.081,4.242-2.175
			c0.188,4.534,3.906,8.151,8.484,8.151c1.068,0,2.081-0.211,3.02-0.57L180.141,147c13.059,24.938-4.094,51.641-4.094,51.641
			l8.771,15.396h0.004c3.934-9.003,3.935-15.998,3.935-15.998l0.026-27.104c0.867-0.154,1.714-0.502,2.471-1.072
			c0.688-0.519,1.23-1.158,1.628-1.863c0.91,1.091,2.149,1.896,3.565,2.273c-0.207,1.525-1.002,2.98-2.334,3.979
			c-1.354,1.017-2.993,1.363-4.541,1.116c1.996,2.585,5.699,3.097,8.32,1.133c1.055-0.794,1.769-1.871,2.125-3.043
			c0.771,0.312,1.61,0.49,2.496,0.49c0.391,0,0.77-0.046,1.141-0.108c0.922,2.499,3.136,4.37,5.834,4.793
			c0.023,0.466,0.052,0.927,0.052,1.401c0,11.646-6.831,21.086-15.258,21.086c-1.955,0-3.824-0.517-5.544-1.438v12.947v1.582
			c0,0,0.003,0.163-0.018,0.457c-0.007,0.062-0.011,0.122-0.017,0.19c-0.002,0.035-0.007,0.078-0.015,0.117
			c-0.008,0.08-0.019,0.168-0.026,0.258c-0.005,0.039-0.013,0.076-0.019,0.115c-0.012,0.104-0.025,0.211-0.047,0.326
			c-0.004,0.026-0.006,0.049-0.014,0.077c-0.021,0.138-0.049,0.287-0.079,0.438c-0.005,0.033-0.01,0.062-0.017,0.095
			c-0.033,0.162-0.068,0.323-0.109,0.499c-0.008,0.029-0.016,0.062-0.021,0.093c-0.043,0.188-0.092,0.373-0.146,0.565
			c-0.007,0.027-0.015,0.054-0.021,0.078c-0.058,0.207-0.119,0.426-0.192,0.646c-0.003,0.016-0.011,0.028-0.013,0.048
			c-0.23,0.711-0.531,1.5-0.922,2.351c-0.006,0.016-0.012,0.023-0.021,0.041c-0.128,0.274-0.27,0.558-0.415,0.849
			c-0.007,0.02-0.017,0.032-0.022,0.049c-0.152,0.293-0.313,0.591-0.487,0.896c-0.003,0.004-0.007,0.013-0.009,0.018
			c-0.721,1.253-1.635,2.591-2.797,3.974c-0.008,0.004-0.013,0.014-0.02,0.018c-0.287,0.343-0.59,0.688-0.908,1.037
			c-0.007,0.004-0.015,0.016-0.021,0.018c-1.3,1.404-2.858,2.851-4.736,4.279c-0.004,0.002-0.006,0.002-0.008,0.004
			c-0.464,0.355-0.945,0.705-1.452,1.059c-0.014,0.013-0.025,0.023-0.042,0.03c-0.503,0.352-1.022,0.701-1.567,1.049
			c-0.009,0.002-0.018,0.01-0.024,0.016c-2.202,1.403-4.747,2.781-7.685,4.09c-0.033,0.015-0.065,0.029-0.1,0.048
			c-0.712,0.313-1.445,0.625-2.203,0.93c-0.043,0.018-0.078,0.032-0.123,0.053c-0.77,0.312-1.556,0.607-2.367,0.905
			c-0.012,0.005-0.017,0.009-0.021,0.011c2.367,4.067,6.764,6.807,11.809,6.807c4.366,0,8.248-2.057,10.748-5.24
			c2.071,2.832,5.412,4.673,9.19,4.673c1.258,0,2.463-0.214,3.593-0.594c1.359,1.085,3.078,1.731,4.951,1.731
			c4.404,0,7.975-3.568,7.975-7.979c0-1.162-0.257-2.265-0.701-3.261c4.112-0.687,7.25-4.25,7.25-8.56
			c0-0.933-0.146-1.827-0.422-2.667c4.062-0.96,10.649-3.509,9.281-9.795c-0.975-4.488-4.094-6.63-6.968-7.652l-0.005-0.002
			c1.637-1.457,2.672-3.576,2.672-5.94c0-4.161-3.186-7.576-7.25-7.938c0.898-1.468,1.898-2.474,1.898-2.474s4.094-2.531,5.457,0
			c0,0,10.135-7.794,3.699-15.977c0,0,0.062-0.035,0.158-0.096c3.828-0.98,6.662-4.443,6.662-8.58c0-4.897-3.971-8.867-8.867-8.867
			c-0.438,0-0.855,0.047-1.271,0.104c-0.42-0.753-0.666-1.676-0.574-2.835C221.502,152.486,222.525,151.037,223.587,150.132z
			 M174.023,126.462c0.062-0.064,0.134-0.12,0.193-0.18c0.031,0.063,0.068,0.123,0.104,0.188L174.023,126.462z"/>
	</g>
</g>
</svg>
