<?xml version="1.0" encoding="utf-8"?>
<!-- Generator: Adobe Illustrator 16.0.0, SVG Export Plug-In . SVG Version: 6.00 Build 0)  -->
<!DOCTYPE svg PUBLIC "-//W3C//DTD SVG 1.1//EN" "http://www.w3.org/Graphics/SVG/1.1/DTD/svg11.dtd">
<svg version="1.1" id="Camada_1" xmlns="http://www.w3.org/2000/svg" xmlns:xlink="http://www.w3.org/1999/xlink" x="0px" y="0px"
	 width="256px" height="306px" viewBox="0 0 256 306" enable-background="new 0 0 256 306" xml:space="preserve">
<rect y="0" fill="#ED823A" width="256" height="306"/>
<g>
	<path fill="#F4D809" d="M215.716,152.625c-0.712,0.545-1.59,0.877-2.551,0.877c-0.5,0-0.97-0.1-1.412-0.259
		c-0.655,1.532-1.842,2.78-3.315,3.538l0,0c-0.217-6.843-2.508-12.121-2.508-12.121l-24.416-24.018c0,0-2.916-9.199-10.521-15.851
		c-1.661-1.197-3.593-2.009-5.521-1.559c-1.053,0.248-1.707,0.77-2.158,1.438c0.006,0.133,0.021,0.264,0.021,0.397
		c0,1.758-0.646,3.359-1.717,4.588c-0.521,1.122-1.41,1.979-3.278,2.131c-0.641,0.195-1.322,0.302-2.025,0.302
		c-1.496,0-2.883-0.47-4.021-1.27c-1.582-0.69-2.136-1.657-2.313-2.738c-0.435-0.915-0.687-1.935-0.687-3.013
		c0-0.421,0.043-0.834,0.115-1.236c-1.021-1.896-3.433-3.084-5.31-1.207c-0.125,0.124-0.266,0.258-0.412,0.396
		c-1.18,2.474-3.688,4.186-6.606,4.186c-0.789,0-1.549-0.131-2.261-0.358c-0.473-0.117-0.934-0.316-1.368-0.607
		c-1.042-0.596-1.925-1.441-2.563-2.455c-0.656,0.387-2.082,1.107-3.765,1.297c-0.828,0.184-1.68,0.293-2.563,0.293
		c-1.558,0-3.042-0.312-4.404-0.873c-1.297,2.855-4.161,4.843-7.505,4.843c-2.708,0-5.105-1.312-6.605-3.33
		c-2.171,2.354-5.244,3.846-8.68,3.926c-2.656,3.18-6.654,5.206-11.121,5.206c-1.461,0-2.865-0.222-4.195-0.621
		c-1.941,3.478-2.776,6.118-2.776,6.118L55.71,144.661c0,0-1.654,3.814-2.285,9.159c-3.236-0.109-6.236-1.168-8.724-2.908
		c-1.208,0.636-2.532,1.15-3.948,1.526c0.025,0.239,0.043,0.48,0.043,0.728c0,3.551-2.879,6.426-6.428,6.426
		c-0.455,0-0.896-0.047-1.322-0.133c-0.281,6.701,9.43,12.199,9.43,12.199c5.161,2.646,10.738,8.543,16.363,7.816
		c1.52-0.195,2.609-0.939,3.404-1.914h0.012c1.198,0.981,2.527,1.928,4.038,2.805c25.714,14.936,32.396,54.725,32.396,54.725
		s2.322,20.039,28.446,19.857h7.368c26.125,0.182,28.449-19.857,28.449-19.857s6.681-39.789,32.397-54.725
		c0.689-0.406,1.34-0.818,1.969-1.244c2.643,3.875,9.303,2.123,9.303,2.123l0.727-0.604c11.062-5.798,14.004-14.752,14.762-18.341
		C218.425,160.598,215.833,156.922,215.716,152.625z"/>
	<path fill="none" d="M78.062,190.139c0,0-8.729-9.285-15.975-12.447c0,0-8.361-6.312-8.361-14.117"/>
	<path fill="none" d="M183.771,190.139c0,0,8.729-9.285,15.976-12.447c0,0,8.36-6.312,8.36-14.117"/>
	<path fill="#168536" d="M234.039,139.79c-5.071-4.754-7.921-5.703-4.755-8.87c3.169-3.169-3.739-6.185-8.603-8.759
		c0,0,4.295-6.576-1.141-10.867c-5.436-4.285-6.58-2.569-6.293-8.858c0.285-6.289-12.771-12.646-18.66-13.383
		c-5.881-0.732-4.9-6.13-4.406-10.539c0.484-4.414-2.209-9.068-5.889-9.807c-3.678-0.733-7.354,5.149-8.822,0.737
		c-0.437-1.305-0.867-2.884-1.392-4.459c0.259-0.753,0.407-1.562,0.407-2.405c0-4.062-3.293-7.354-7.354-7.354
		c-2.797,0-5.229,1.562-6.475,3.858c-1.211-1.173-2.855-1.899-4.682-1.899c-0.22,0-0.438,0.014-0.652,0.035
		c-0.428-6.316-5.672-11.309-12.092-11.309c-2.805,0-5.393,0.964-7.443,2.565c-0.913-0.228-1.867-0.359-2.854-0.359
		c-1.498,0-2.938,0.29-4.265,0.798c-1.775-2.97-5.014-4.963-8.728-4.963c-4.245,0-7.879,2.603-9.399,6.295
		c-0.568-0.106-1.153-0.169-1.75-0.169c-2.639,0-5.014,1.1-6.707,2.861c-7,1.53-9.471,7.434-9.471,7.434
		c-4.901-4.411-8.093-2.942-8.093-2.942c-9.067,1.717-8.579,10.542-8.579,10.542c-5.689,0.811-5.67,5.917-5.9,9.437
		c-0.09-0.004-0.186-0.01-0.277-0.01c-1.309,0-2.461,0.573-3.248,1.463c-2.034,1.127-3.413,3.294-3.413,5.785
		c0,1.64,0.601,3.14,1.59,4.297c-2.169,0.758-3.891,2.455-4.687,4.606c-0.845-1.531-2.475-2.564-4.344-2.564
		c-2.74,0-4.959,2.218-4.959,4.958c0,0.822,0.202,1.591,0.556,2.274c-0.141,0.449-0.226,0.931-0.259,1.421
		c-2.931,0.514-9.533,1.094-10.973,3.772c-1.143,1.123-1.857,2.688-1.857,4.422c0,1.646,0.65,3.137,1.697,4.243
		c-0.82,2.481-1.113,5.652-1.197,8.092c-1.297-1.493-3.201-2.438-5.327-2.438c-0.997,0-1.944,0.213-2.802,0.583
		c-1.812,0.078-3.835,1.686-5.984,6.348c-0.076,0.161-0.115,0.293-0.182,0.441c-2.342,0.33-4.148,2.323-4.148,4.759
		c0,2.011,1.23,3.73,2.977,4.458c0.186,2.252,1.094,3.89,2.254,5.1c-0.193,1.025-0.303,2.122-0.303,3.259
		c0,1.543,0.201,3.004,0.548,4.325c-0.474-0.155-0.968-0.267-1.489-0.267c-2.617,0-4.737,2.122-4.737,4.737
		c0,1.383,0.599,2.608,1.538,3.471c-0.118,0.634-0.184,1.277-0.184,1.938c0,5.791,4.691,10.488,10.486,10.488
		c0.961,0,1.891-0.144,2.771-0.384c-1.261,1.99-2.235,4.759-1.337,8.128c1.889,7.079,9.912,4.479,9.912,4.479l3.067,4.016
		c0,0-4.249-2.832-4.722,3.541c-0.471,6.371,10.385,6.609,10.385,6.609c-4.246,6.369,1.89,12.506,1.89,12.506
		s8.14,6.101,13.554,1.023c0,0,4.399-3.045,0.34-6.09c-4.061-3.045-3.381-7.104,0-6.431c0.693,0.142,1.818,0.488,3.162,0.81
		c1.754,2.621,4.518,4.391,7.688,4.617c0.673-0.117,1.191-0.169,1.336-0.078c0.023,0.021,0.048,0.055,0.073,0.078
		c0.087-0.011,0.171-0.009,0.261-0.019c0.024,0.242,0.062,0.479,0.104,0.717c0.162,0.498,0.247,1.039,0.247,1.039
		s-4.237,5.479,2.689,11.013c-0.048,0.321-0.081,0.649-0.081,0.983c0,1.254,0.353,2.418,0.953,3.385
		c-0.166,0.597-0.973,4.345,4.389,6.451c-0.006,0.094-0.016,0.187-0.016,0.279c0,5.463,3.773,9.967,8.652,10.647
		c-0.208,0.765-0.326,1.568-0.326,2.408c0,3.308,1.762,6.16,4.318,7.556c-0.006,0.192-0.021,0.391-0.021,0.588
		c0,9.305,11.676,16.848,18.559,16.848h23.851c6.885,0,18.561-7.543,18.561-16.848c0-0.259-0.018-0.521-0.029-0.776
		c2.379-1.448,3.986-4.202,3.986-7.364c0-0.821-0.109-1.612-0.311-2.362c5.036-0.521,8.976-5.105,8.976-10.693
		c0-0.096-0.011-0.188-0.011-0.279c0.555,0.354,1.199,0.572,1.893,0.572c2.072,0,3.755-1.82,3.755-4.066
		c0-1.221-0.503-2.301-1.29-3.045c0.318-1.102,0.486-2.272,0.486-3.487c0-0.156-0.012-0.302-0.02-0.453
		c0.094,0.006,0.188,0.02,0.286,0.02c2.647,0,4.861-1.977,5.472-4.639c1.207-0.34,2.408-0.812,3.576-1.452
		c0.422-0.226,0.823-0.47,1.219-0.724c1.17,0.625,2.557,0.789,3.885,0.444c0.057,0.623,0.238,1.246,0.555,1.828
		c1.248,2.297,4.122,3.146,6.424,1.898c1.213-0.658,2.008-1.773,2.316-3.013c0.609-0.196,1.209-0.444,1.791-0.762
		c5.09-2.768,6.975-9.135,4.209-14.223c-0.461-0.846-1.025-1.594-1.661-2.254c2.353,0.162,5.249-0.308,7.778-2.703
		c2.598-2.461,2.468-5.104,1.656-7.166c1.312-1.088,2.246-2.937,2.494-5.109c0.668-0.062,1.477-0.271,2.483-0.727
		c3.387-1.527,3.121-5.435,2.308-8.438c3.438-0.481,6.092-3.428,6.104-7.002c1.813-2.104,2.522-4.479,2.522-4.479
		s0.428-2.938-0.287-6.011C234.491,146.647,237.398,142.94,234.039,139.79z M154.325,224.053c0,1.684,0.37,3.268,1.004,4.688
		c-0.289,0.188-0.558,0.42-0.813,0.656c-0.494,0.242-0.965,0.541-1.398,0.889c-2.137-1.19-4.551-1.873-7.113-1.873
		c-2.32,0-4.523,0.562-6.502,1.547c-4.906-1.559-4.497-6.633-4.497-6.633c0-4.664,5.302-8.127,5.302-8.127h-0.092
		c-1.467,0.566-3.18,0.928-5.21,0.928h-10.731c-2.026,0-3.742-0.356-5.212-0.928h-0.322c0,0,5.293,3.463,5.293,8.127
		c0,0,0.318,3.937-2.951,5.938c-1.536-0.553-3.178-0.854-4.89-0.854c-2.643,0-5.123,0.726-7.311,1.979
		c-0.26-0.217-0.534-0.414-0.823-0.596c-0.357-0.4-0.749-0.771-1.192-1.06c0.634-1.418,1.002-3.002,1.002-4.688
		c0-3.111-1.23-5.91-3.191-7.871c0.154-0.785,0.234-1.602,0.234-2.438c0-0.759-0.069-1.494-0.194-2.211
		c0.437-1.578,1.306-5.009,5.78-5.339c0.742-0.059,1.398-0.211,2.002-0.418c1.312-0.354,3.483-1.424,5.127-4.711
		c0,0,2.387-8,10.162-8h3.703c7.776,0,10.157,8,10.157,8c1.646,3.287,3.819,4.357,5.129,4.711c0.604,0.207,1.264,0.359,2.007,0.418
		c4.965,0.365,5.487,4.558,5.916,5.789c0.313,0.938,0.643,3.071,2.717,3.461c0.033,0.246,0.062,0.492,0.103,0.732
		C155.562,218.141,154.325,220.939,154.325,224.053z M207.348,180.639l-0.727,0.604c0,0-6.661,1.752-9.303-2.123
		c-0.629,0.424-1.276,0.838-1.969,1.244c-6.682,3.879-12.076,9.438-16.401,15.539c-0.048,0.068-0.093,0.139-0.14,0.207
		c-2.379,3.371-4.438,6.906-6.199,10.414c0.015,0.012,0.029,0.021,0.043,0.035c-1.202,2.213-2.215,4.223-2.438,5.065l-3.56-1.475
		c-0.122-2.822-3.967-6.562-3.967-6.562c-0.801-2.854-2.414-5.684-5.037-7.754c-5.967-4.709-8.521-4.039-10.86-4.93
		c-1.871-1.938-4.086-3.936-6.646-5.709c-0.334-0.23-0.658-0.438-0.979-0.633c-1.343-0.971-2.711-1.668-3.937-1.668
		c-2.102-0.521-3.963-0.396-5.521,0h-0.143c-1.56-0.396-3.427-0.521-5.525,0c-1.221,0-2.589,0.697-3.935,1.668
		c-0.323,0.194-0.647,0.399-0.974,0.633c-2.56,1.773-4.776,3.771-6.651,5.709c-2.335,0.891-4.892,0.221-10.858,4.93
		c-2.271,1.787-3.778,4.146-4.668,6.599c0,0-4.783,3.184-2.451,8.215l-2.945,0.854c0,0-4.472-9.319-10.526-17.567
		c0.043-0.045,0.083-0.072,0.121-0.117c-1.154-1.504-2.389-2.959-3.687-4.363c-1.986-2.268-4.066-4.254-6.158-5.674
		c-1.592-1.24-3.252-2.393-5.015-3.416c-1.511-0.877-2.849-1.82-4.05-2.805c-0.795,0.975-1.885,1.719-3.404,1.914
		c-5.625,0.727-11.202-5.175-16.363-7.816c0,0-9.711-5.498-9.43-12.199c0.426,0.086,0.867,0.133,1.322,0.133
		c3.549,0,6.428-2.875,6.428-6.426c0-0.246-0.018-0.487-0.043-0.728c1.416-0.376,2.74-0.892,3.948-1.526
		c2.487,1.74,5.49,2.799,8.727,2.908c0.628-5.345,2.282-9.159,2.282-9.159l23.562-24.018c0,0,0.835-2.642,2.776-6.118
		c1.33,0.399,2.734,0.621,4.195,0.621c4.467,0,8.465-2.026,11.121-5.206c3.436-0.08,6.509-1.572,8.68-3.926
		c1.5,2.018,3.897,3.33,6.605,3.33c3.344,0,6.208-1.986,7.505-4.843c1.362,0.561,2.847,0.873,4.404,0.873
		c0.884,0,1.735-0.109,2.563-0.293c1.683-0.188,3.106-0.91,3.765-1.297c0.641,1.014,1.521,1.859,2.563,2.455
		c0.437,0.291,0.896,0.49,1.368,0.607c0.711,0.229,1.472,0.358,2.261,0.358c2.918,0,5.43-1.712,6.608-4.186
		c0.146-0.138,0.285-0.271,0.41-0.396c1.877-1.877,4.284-0.688,5.309,1.207c-0.071,0.402-0.114,0.815-0.114,1.236
		c0,1.078,0.252,2.098,0.687,3.013c0.18,1.081,0.731,2.048,2.313,2.738c1.14,0.8,2.524,1.27,4.021,1.27
		c0.703,0,1.389-0.105,2.026-0.302c1.868-0.151,2.759-1.009,3.278-2.131c1.07-1.229,1.717-2.83,1.717-4.588
		c0-0.135-0.014-0.266-0.021-0.397c0.453-0.669,1.108-1.189,2.16-1.438c1.926-0.45,3.857,0.36,5.521,1.559
		c7.604,6.65,10.521,15.851,10.521,15.851l24.416,24.018c0,0,0.012,0.023,0.022,0.055c0.005,0.011,0.009,0.029,0.019,0.04
		c0.01,0.031,0.027,0.077,0.049,0.126c0.014,0.027,0.025,0.062,0.035,0.094c0.026,0.058,0.053,0.124,0.075,0.193
		c0.019,0.039,0.034,0.08,0.052,0.125c0.035,0.101,0.078,0.211,0.119,0.334c0.014,0.027,0.021,0.054,0.031,0.081
		c0.059,0.153,0.115,0.327,0.182,0.512c0.014,0.047,0.029,0.1,0.049,0.147c0.045,0.146,0.094,0.293,0.146,0.453
		c0.026,0.073,0.049,0.153,0.071,0.229c0.047,0.15,0.097,0.31,0.144,0.472c0.024,0.084,0.054,0.171,0.073,0.259
		c0.054,0.188,0.109,0.382,0.162,0.58c0.021,0.074,0.041,0.146,0.062,0.223c0.071,0.275,0.146,0.563,0.213,0.864
		c0.021,0.061,0.029,0.122,0.047,0.182c0.058,0.244,0.113,0.495,0.17,0.754c0.021,0.106,0.045,0.221,0.064,0.334
		c0.049,0.223,0.092,0.447,0.135,0.679c0.021,0.123,0.047,0.244,0.067,0.373c0.041,0.242,0.082,0.492,0.121,0.742
		c0.019,0.115,0.032,0.229,0.052,0.347c0.182,1.221,0.305,2.543,0.35,3.924c1.477-0.758,2.66-2.006,3.315-3.538
		c0.442,0.159,0.912,0.259,1.412,0.259c0.961,0,1.839-0.332,2.552-0.877c0.116,4.296,2.709,7.974,6.393,9.673
		C221.352,165.887,218.409,174.842,207.348,180.639z"/>
</g>
</svg>
