<?xml version="1.0" encoding="utf-8"?>
<!-- Generator: Adobe Illustrator 16.0.0, SVG Export Plug-In . SVG Version: 6.00 Build 0)  -->
<!DOCTYPE svg PUBLIC "-//W3C//DTD SVG 1.1//EN" "http://www.w3.org/Graphics/SVG/1.1/DTD/svg11.dtd">
<svg version="1.1" id="Camada_1" xmlns="http://www.w3.org/2000/svg" xmlns:xlink="http://www.w3.org/1999/xlink" x="0px" y="0px"
	 width="256px" height="306px" viewBox="0 0 256 306" enable-background="new 0 0 256 306" xml:space="preserve">
<rect y="0" fill="#ED823A" width="256" height="306"/>
<g>
	<path fill="#F4D809" d="M181.861,113.5c-0.148,0.035-0.236,0.063-0.236,0.063l-0.049,0.059c-1.996,0.879-4.24,2.538-6.406,4.768
		v-14.281c0-42.127-21.92-66.911-48.961-66.911h-4.916c-27.041,0-48.965,24.784-48.965,66.911v14.45
		c-2.215-2.317-4.523-4.034-6.572-4.936l-0.047-0.06c0,0-0.088-0.028-0.236-0.063c-1.885-0.769-7.162,0.627-6.238,7.145l1.061,7.47
		c0,0,1.496,13.476,9.406,19.393c-9.627,64.752,26.281,120.098,51.592,120.098h4.916c25.322,0,61.263-55.41,51.572-120.21
		c7.776-5.976,9.258-19.277,9.258-19.277l1.06-7.47C189.023,114.126,183.746,112.731,181.861,113.5z"/>
	<polygon fill="#168536" points="115.127,189.591 132.373,189.591 123.389,200.268 	"/>
	<path fill="#168536" d="M175.514,135.589v0.575c0,22.681-12.771,42.915-26.022,56.189l-3.451-15.369c0,0-3.433-9.799-14.203-9.799
		h-16.17c-10.773,0-14.207,9.799-14.207,9.799l-3.535,15.748c-13.281-13.27-25.916-33.67-25.916-56.568v-0.66
		c-16.367,69.761,22.424,132.101,49.287,132.101h4.916C153.059,267.604,191.828,205.314,175.514,135.589z M123.762,208.564
		c-4.59,0-12.223-3.906-20.234-10.67l3.236-14.426c0,0,2.615-7.467,10.824-7.467h12.322c8.211,0,10.824,7.467,10.824,7.467
		l3.156,14.062C135.713,204.514,128.014,208.564,123.762,208.564z"/>
</g>
</svg>
