<?xml version="1.0" encoding="utf-8"?>
<!-- Generator: Adobe Illustrator 16.0.0, SVG Export Plug-In . SVG Version: 6.00 Build 0)  -->
<!DOCTYPE svg PUBLIC "-//W3C//DTD SVG 1.1//EN" "http://www.w3.org/Graphics/SVG/1.1/DTD/svg11.dtd">
<svg version="1.1" id="Camada_1" xmlns="http://www.w3.org/2000/svg" xmlns:xlink="http://www.w3.org/1999/xlink" x="0px" y="0px"
	 width="256px" height="306px" viewBox="0 0 256 306" enable-background="new 0 0 256 306" xml:space="preserve">
<rect fill="#41B9BF" width="256" height="306"/>
<g>
	<g>
		<path fill="#168536" d="M215.775,125.933c0,0,5.674-3.041,3.646-7.905c-2.026-4.859-9.116-3.643-9.116-3.643
			s6.482-4.46,3.24-9.118c-3.24-4.661-10.133-3.242-10.133-3.242s5.473-4.256,2.23-15.4c-3.24-11.145-17.021-7.905-17.021-7.905
			c2.23-5.671-1.824-12.764-6.482-15.396c-4.66-2.634-10.535-0.813-10.535-0.813s-4.459-11.144-12.967-11.344
			c-8.512-0.203-11.758,5.065-11.758,5.065s-1.617-6.686-12.354-8.509c-10.74-1.823-14.792,7.496-14.792,7.496
			s-1.22-5.062-10.338-6.483c-9.121-1.421-13.978,7.092-13.978,7.092s-8.269-5.616-17.829,2.229
			c-7.906,6.483-5.473,12.969-5.473,12.969s-8.51,2.025-6.888,7.696c0,0-10.336-0.806-9.524,10.741c0,0-10.331,0.406-11.956,8.916
			c-1.616,8.509,3.853,10.129,3.853,10.129s-10.538,3.24-13.172,20.465c-2.633,17.223,14.794,21.478,14.794,21.478
			s-5.272,2.635-6.081,10.74c-0.81,8.102,7.902,7.897,7.902,7.897s-2.228,9.318,6.076,10.74l6.486,11.146
			c0,0-9.407-4.089-16.412,6.279c-5.062,7.497,1.42,12.562,1.42,12.562s-5.067-1.416-7.501,3.851
			c-1.894,4.108,1.753,6.478,4.889,5.89c-2.726,1.781-6.414,5.705-3.262,12.957c4.657,10.735,15.395,8.303,18.434,2.023
			c0,0-4.865,12.768,7.498,14.995c12.357,2.229,13.979-9.117,12.969-11.755c0,0,6.596,8.983,14.627-1.215
			c-0.602-0.494-1.218-0.992-1.866-1.486c-7.294-5.6-8.51-14.398-10.029-24.002c-1.518-9.598-7.903-20.971-13.982-34.319
			c-2.142-4.715-3.327-8.606-3.806-12.185c0.814,0.024,1.649-0.153,2.492-0.61c6.279-3.448,1.621-17.631,1.621-17.631
			c9.929-8.913,5.371-19.856,5.371-19.856c5.466-0.406,3.947-7.902,3.947-7.902s1.218,5.268,8.512,4.861
			c5.238-0.288,5.772-4.853,5.657-7.409c0.683,3.906,3.924,13.087,19.264,11.666c13.806-1.277,14.997-18.465,15.022-23.892
			c0.617,13.561,11.315,11.126,11.315,11.126s0.205,7.093,10.541,7.702c10.331,0.606,10.534-9.118,10.534-9.118
			c4.984,12.192,16.884,4.34,18.938,2.863c-0.757,0.673-2.531,3.057-0.9,9.901c2.025,8.51,7.498,12.967,7.498,12.967
			s-4.562,5.166,0.4,13.376c1.949,3.217,4.145,4.405,5.967,4.739c0.707,5.715-0.188,11.385-3.841,19.4
			c-6.075,13.352-12.459,24.723-13.979,34.319c-1.521,9.604-2.734,18.401-10.029,24.002c-1.076,0.819-2.076,1.649-3.038,2.479
			l1.216,0.022c2.23,18.233,19.047,7.292,19.047,7.292s1.217,7.701,7.293,5.877c6.076-1.826,5.875-8.914,5.875-8.914
			s10.535,7.498,16.211-0.408c5.676-7.898-2.025-14.588-2.025-14.588s9.322-3.036,7.701-12.764
			c-1.113-6.678-7.467-7.338-11.352-7.098c1.196-0.521,2.395-1.609,2.84-3.845c1.016-5.067-5.271-6.483-5.271-6.483
			s5.473-2.637,4.658-8.104c-0.805-5.473-8.711-6.079-8.711-6.079l0.404-16.008c0,0,6.689,5.065,9.729,0.403
			c3.041-4.659,0-10.737,0-10.737c7.494-6.077,1.617-14.385,1.617-14.385s7.703-0.609,9.32-7.498
			C222.057,127.351,215.775,125.933,215.775,125.933z"/>
	</g>
	<path fill="#F4D809" d="M191.053,153.895c-0.775,0.043-1.479,0.562-2.125,1.41c-0.724-0.686-1.443-1.558-2.133-2.692
		c-4.961-8.21-0.4-13.376-0.4-13.376s-5.471-4.458-7.498-12.967c-1.629-6.844,0.146-9.228,0.9-9.901
		c-2.051,1.477-13.949,9.329-18.934-2.863c0,0-0.204,9.724-10.537,9.118c-10.334-0.609-10.539-7.702-10.539-7.702
		s-10.699,2.435-11.314-11.126c-0.028,5.427-1.22,22.615-15.024,23.892c-15.339,1.421-18.582-7.759-19.264-11.666
		c0.115,2.556-0.419,7.121-5.659,7.409c-7.292,0.407-8.51-4.861-8.51-4.861s1.519,7.496-3.949,7.902c0,0,4.56,10.943-5.37,19.856
		c0,0,2.314,7.084,1.456,12.46c-1.053-2.909-2.334-4.806-3.887-4.894c-7.094-0.405-11.144,9.727-11.349,20.057
		c-0.202,10.334,4.258,18.848,7.701,22.896c3.446,4.055,5.876,5.469,9.724,4.055c3.85-1.422,2.433-8.514,2.433-8.514
		s-0.033-0.871-0.113-2.332c3.678,7.788,6.722,14.778,7.71,21.016c1.519,9.604,2.735,18.404,10.029,24.003
		c7.294,5.601,11.549,11.198,18.238,17.2c6.683,6.002,10.942,7.602,17.02,7.199c6.075,0.4,10.332-1.197,17.021-7.199
		s10.938-11.602,18.233-17.2s8.51-14.398,10.032-24.003c0.986-6.24,4.033-13.234,7.712-21.031c-0.078,1.473-0.111,2.348-0.111,2.348
		s-1.42,7.092,2.433,8.514c3.847,1.416,6.276,0,9.728-4.053c3.44-4.051,7.899-12.562,7.696-22.896
		C202.2,163.621,198.146,153.489,191.053,153.895z"/>
	<path fill="#168536" d="M129.662,208.602c0,0,4.455,3.647,10.533,3.647l20.26,1.618c0,0,0.812-11.342-9.318-12.561
		c-10.127-1.217-20.262-1.619-20.262-1.619h-2.431c0,0-10.131,0.402-20.259,1.619c-10.135,1.219-9.322,12.561-9.322,12.561
		l20.261-1.618C125.206,212.249,129.662,208.602,129.662,208.602z"/>
</g>
</svg>
