<?xml version="1.0" encoding="utf-8"?>
<!-- Generator: Adobe Illustrator 16.0.0, SVG Export Plug-In . SVG Version: 6.00 Build 0)  -->
<!DOCTYPE svg PUBLIC "-//W3C//DTD SVG 1.1//EN" "http://www.w3.org/Graphics/SVG/1.1/DTD/svg11.dtd">
<svg version="1.1" id="Camada_1" xmlns="http://www.w3.org/2000/svg" xmlns:xlink="http://www.w3.org/1999/xlink" x="0px" y="0px"
	 width="256px" height="306px" viewBox="0 0 256 306" enable-background="new 0 0 256 306" xml:space="preserve">
<rect fill="#41B9BF" width="256" height="306"/>
<g>
	<path fill="#F4D809" d="M166.507,131.918c2.856,6.389,3.042,18.421,3.042,18.421s-0.326,6.2,1.331,12.914
		c4.231,17.104,1.392,38.042-6.362,47.043c-12.646,14.685-18.898,16.862-18.898,16.862s-6.848,4.521-16.182,5.035
		c-2.581,0.138-3.554,0-3.554,0c-9.318-0.737-16.18-5.035-16.18-5.035s-6.256-2.178-18.902-16.862
		c-7.748-9.001-9.009-24.866-6.359-42.282c1.656-10.927,1.33-17.675,1.33-17.675s-1.088-10.283,3.922-17.514
		c0,0-0.159,3.986,0.682,5.922c4.256,9.804,10.264-1.069,10.264-1.069s3.54,5.555,9.064,5.163c5.523-0.393,6.295-5.163,6.295-5.163
		s1.963,7.438,9.199,7.095c5.85-0.274,6.599-9.781,6.599-9.781s2.703,8.651,9.438,9.501c6.738,0.852,5.037-6.814,5.037-6.814
		s2.707,5.965,7.164,5.747c4.459-0.209,4.022-5.747,4.022-5.747s2.824,5.886,6.435,4.139
		C168.566,139.562,166.507,131.918,166.507,131.918z"/>
	<path fill="#168536" d="M240.186,186.229c0-2.521-0.69-4.867-1.879-6.894c2.069-2.36,3.33-5.442,3.33-8.824
		c0-2.879-0.908-5.53-2.445-7.713c0.065-0.45,0.113-0.905,0.113-1.366c0-4.486-3.121-8.229-7.297-9.209
		c0.206-0.562,0.335-1.155,0.335-1.79c0-1.374-0.547-2.619-1.428-3.546c1.009-1.916,1.584-4.098,1.584-6.41
		c0-0.188-0.021-0.371-0.026-0.554c0.08-2.099-0.507-4.149-1.298-5.904c-0.26-2.591-1.352-4.929-2.987-6.773
		c0-0.056,0.004-0.113,0.004-0.169c0.516-1.201,0.81-2.519,0.81-3.91c0-5.249-4.096-9.525-9.265-9.847
		c-1.322-3.573-4.641-6.174-8.604-6.444c-0.393-3.65-3.036-6.616-6.515-7.5c-0.863-3.498-3.775-6.182-7.401-6.698
		c-0.487-2.032-2.03-3.625-4.026-4.202c-2.117-6.061-7.867-10.41-14.646-10.41c-0.283,0-0.562,0.025-0.843,0.041
		c-1.345-0.343-1.882-0.482-1.882-0.482s-1.996-3.698-6.592-4.683c-7.969-1.701-9.168,0.855-9.168,0.855s-4.104-7.029-12.914-4.262
		c0,0-7.351-6.212-19.104,0.093c-11.747-6.305-19.096-0.093-19.096-0.093c-8.81-2.768-12.917,4.26-12.917,4.26
		s-1.197-2.555-9.167-0.854c-4.593,0.984-6.587,4.683-6.587,4.683s-0.539,0.14-1.886,0.482c-0.278-0.016-0.558-0.041-0.842-0.041
		c-2.446,0-4.756,0.571-6.812,1.582c-0.447-0.082-0.913-0.131-1.385-0.131c-4.205,0-7.615,3.406-7.615,7.617
		c0,0.596,0.074,1.171,0.199,1.727c-1.514,0.751-2.661,2.128-3.066,3.815c-3.293,0.473-5.988,2.744-7.097,5.781
		c-0.136-0.006-0.269-0.018-0.405-0.018c-4.658,0-8.434,3.773-8.434,8.433c0,0.125,0.011,0.248,0.018,0.375
		c-3.051,0.86-5.51,3.123-6.602,6.073c-5.166,0.321-9.258,4.598-9.258,9.847c0,1.392,0.29,2.709,0.805,3.91c0,0.056,0,0.113,0,0.169
		c-1.634,1.845-2.721,4.183-2.984,6.773c-0.794,1.755-1.377,3.806-1.297,5.904c-0.009,0.183-0.026,0.365-0.026,0.554
		c0,1.651,0.306,3.228,0.835,4.697c-2.152,1.609-3.553,4.175-3.553,7.071c0,0.45,0.04,0.898,0.109,1.336
		c-2.53,1.698-4.197,4.571-4.197,7.853c0,0.463,0.045,0.918,0.105,1.366c-1.533,2.183-2.441,4.834-2.441,7.714
		c0,3.381,1.264,6.465,3.333,8.823c-1.187,2.024-1.877,4.371-1.877,6.894c0,3.348,1.216,6.398,3.214,8.775
		c-0.109,0.702-0.186,1.415-0.186,2.146c0,1.33,0.203,2.611,0.555,3.824c-0.119,0.729-0.206,1.476-0.206,2.252
		c0,5.412,3.035,9.801,6.773,9.801c0.64,0,1.257-0.141,1.847-0.377c0.109,2.943,0.973,5.697,2.386,8.072
		c-0.368,0.58-0.593,1.262-0.593,2.002c0,1.926,1.481,3.484,3.363,3.651c1.154,3.75,4.385,6.572,8.354,7.166
		c2.196,2.437,5.367,3.976,8.906,3.976c2.09,0,4.061-0.539,5.771-1.478c1.941,1.24,4.248,1.969,6.723,1.969
		c5.336,0,9.881-3.351,11.668-8.06c1.23-1.161,2.116-2.674,2.506-4.379c5.088-0.288,9.117-4.493,9.117-9.648
		c0-1.775-0.485-3.438-1.327-4.872c0.468-0.466,0.845-0.979,1.135-1.519c0.881-0.967,1.582-2.092,2.081-3.313
		c-5.198-9.307-5.832-23.175-3.545-38.204c1.656-10.927,1.33-17.675,1.33-17.675s-1.088-10.283,3.922-17.514
		c0,0-0.159,3.986,0.682,5.922c4.256,9.804,10.264-1.069,10.264-1.069s3.54,5.555,9.064,5.163c5.523-0.393,6.295-5.163,6.295-5.163
		s1.963,7.438,9.199,7.095c5.85-0.274,6.599-9.781,6.599-9.781s2.703,8.651,9.438,9.501c6.736,0.852,5.035-6.814,5.035-6.814
		s2.707,5.965,7.166,5.747c4.457-0.209,4.022-5.747,4.022-5.747s2.824,5.886,6.433,4.139c4.674-2.255,2.613-9.898,2.613-9.898
		c2.855,6.389,3.042,18.421,3.042,18.421s-0.325,6.2,1.331,12.914c3.573,14.448,2.098,31.638-3.119,42.05
		c0.494,1.592,1.323,3.027,2.418,4.229c0.549,1.023,1.391,1.966,2.637,2.646c0.021,0.418,0.068,0.818,0.14,1.221
		c-0.396,1.67-0.638,5.137,3.285,7.33c2.301,1.289,3.801,2.018,4.774,2.435c-0.149,0.767-0.229,1.55-0.229,2.354
		c0,6.898,5.595,12.49,12.491,12.49c2.479,0,4.777-0.729,6.721-1.969c1.717,0.938,3.68,1.479,5.771,1.479
		c5.838,0,10.701-4.174,11.771-9.697c6.068-2.456,10.387-8.293,10.645-15.172c0.588,0.238,1.207,0.377,1.85,0.377
		c3.738,0,6.77-4.387,6.77-9.801c0-2.449-0.627-4.685-1.654-6.408C238.221,194.316,240.186,190.503,240.186,186.229z"/>
	<path fill="#168536" d="M121.401,204.657c-0.535-0.218-1.021-0.444-1.491-0.675h-0.012c0,0,2.862,6.42,9.967,7.498
		c0,0,7.195-0.698,9.684-6.789C129.857,208.209,121.401,204.657,121.401,204.657z"/>
	<path fill="#168536" d="M155.359,190.596c0,0-2.123-2.769-5.672-4.283c-1.959-0.84-5.578-1.551-5.588-1.555
		c-4.177-0.47-6.82-4.617-7.707-5.021c-1.065,1.209-2.604,2.283-5.588,2.283h-0.433c-2.848,0-4.374-0.978-5.437-2.121
		c-0.668,0.383-1.513,0.713-2.285,1.426c-3.155,2.912-7.122,3.658-8.034,3.812c-0.242,0.054-0.379,0.065-0.379,0.065
		c-0.215,0.066-0.477,0.127-0.763,0.188c-6.256,1.479-7.997,5.209-7.997,5.209c-1.566,3.163-0.279,6.274,1.191,8.432
		c0.485,0.934,1.258,1.705,1.916,2.324c0.356,0.358,0.586,0.557,0.586,0.557s0.273-3.277,4.027-5.729
		c0.072-0.066,0.165-0.13,0.273-0.186c2.083-1.102,1.937-2.13,2.646-3.212c0.445-0.679,1.895-2.37,4.422-4.081
		c1.189-0.812,2.453-0.895,3.375-0.814c1.533-0.556,3.42-0.81,5.108-1.572c1.008-0.455,2.342-0.455,3.349,0
		c1.649,0.746,3.481,1.009,4.995,1.529c1.757-0.119,2.716,0.594,2.716,0.594c3.062,1.429,4.476,3.627,4.948,4.347
		c0.713,1.082,0.561,2.112,2.646,3.212c3.434,1.088,3.652,5.912,3.652,5.912s0.033-0.016,0.083-0.061
		C152.152,201.303,159.984,196.678,155.359,190.596z"/>
</g>
</svg>
